<?xml version="1.0" encoding="UTF-8" standalone="no"?>
<!DOCTYPE svg PUBLIC "-//W3C//DTD SVG 1.1//EN"
 "http://www.w3.org/Graphics/SVG/1.1/DTD/svg11.dtd">
<!-- Generated by graphviz version 5.0.0 (20220707.1540)
 -->
<!-- Title: dependencies Pages: 1 -->
<svg width="144pt" height="247pt"
 viewBox="0.00 0.00 144.00 246.80" xmlns="http://www.w3.org/2000/svg" xmlns:xlink="http://www.w3.org/1999/xlink">
<g id="graph0" class="graph" transform="scale(1 1) rotate(0) translate(4 242.8)">
<title>dependencies</title>
<polygon fill="white" stroke="transparent" points="-4,4 -4,-242.8 140,-242.8 140,4 -4,4"/>
<text text-anchor="middle" x="68" y="-8.2" font-family="sans-serif" font-size="14.00">dependencies</text>
<g id="clust1" class="cluster">
<title>cluster_UtilitiesModule</title>
<polygon fill="none" stroke="black" stroke-dasharray="1,5" points="8,-32.8 8,-230.8 128,-230.8 128,-32.8 8,-32.8"/>
</g>
<g id="clust4" class="cluster">
<title>cluster_UtilitiesModule_exports</title>
<polygon fill="none" stroke="black" points="28,-170.8 28,-222.8 108,-222.8 108,-170.8 28,-170.8"/>
</g>
<g id="clust6" class="cluster">
<title>cluster_UtilitiesModule_providers</title>
<polygon fill="none" stroke="black" points="19,-40.8 19,-92.8 117,-92.8 117,-40.8 19,-40.8"/>
</g>
<!-- Collage  -->
<g id="node1" class="node">
<title>Collage </title>
<polygon fill="#fb8072" stroke="black" points="99.54,-214.8 36.46,-214.8 36.46,-178.8 99.54,-178.8 99.54,-214.8"/>
<text text-anchor="middle" x="68" y="-192.6" font-family="Times,serif" font-size="14.00">Collage </text>
</g>
<!-- UtilitiesModule -->
<g id="node2" class="node">
<title>UtilitiesModule</title>
<polygon fill="#8dd3c7" stroke="black" points="120.16,-149.8 117.16,-153.8 96.16,-153.8 93.16,-149.8 15.84,-149.8 15.84,-113.8 120.16,-113.8 120.16,-149.8"/>
<text text-anchor="middle" x="68" y="-127.6" font-family="Times,serif" font-size="14.00">UtilitiesModule</text>
</g>
<!-- UtilitiesModule&#45;&gt;Collage  -->
<g id="edge1" class="edge">
<title>UtilitiesModule&#45;&gt;Collage </title>
<path fill="none" stroke="black" stroke-dasharray="5,2" d="M68,-149.91C68,-149.91 68,-168.79 68,-168.79"/>
<polygon fill="black" stroke="black" points="64.5,-168.79 68,-178.79 71.5,-168.79 64.5,-168.79"/>
</g>
<!-- Collage -->
<g id="node3" class="node">
<title>Collage</title>
<ellipse fill="#fdb462" stroke="black" cx="68" cy="-66.8" rx="41.15" ry="18"/>
<text text-anchor="middle" x="68" y="-62.6" font-family="Times,serif" font-size="14.00">Collage</text>
</g>
<!-- Collage&#45;&gt;UtilitiesModule -->
<g id="edge2" class="edge">
<title>Collage&#45;&gt;UtilitiesModule</title>
<path fill="none" stroke="black" d="M68,-84.91C68,-84.91 68,-103.79 68,-103.79"/>
<polygon fill="black" stroke="black" points="64.5,-103.79 68,-113.79 71.5,-103.79 64.5,-103.79"/>
</g>
</g>
</svg>
