<?xml version="1.0" encoding="UTF-8" standalone="no"?>
<!DOCTYPE svg PUBLIC "-//W3C//DTD SVG 1.1//EN"
 "http://www.w3.org/Graphics/SVG/1.1/DTD/svg11.dtd">
<!-- Generated by graphviz version 2.47.0 (20210316.0004)
 -->
<!-- Title: dependencies Pages: 1 -->
<svg width="4318pt" height="515pt"
 viewBox="0.00 0.00 4318.00 515.00" xmlns="http://www.w3.org/2000/svg" xmlns:xlink="http://www.w3.org/1999/xlink">
<g id="graph0" class="graph" transform="scale(1 1) rotate(0) translate(4 511)">
<title>dependencies</title>
<polygon fill="white" stroke="transparent" points="-4,4 -4,-511 4314,-511 4314,4 -4,4"/>
<text text-anchor="start" x="2134.01" y="-42.4" font-family="Times-12" font-weight="bold" font-size="14.00">Legend</text>
<polygon fill="#ffffb3" stroke="transparent" points="1921,-10 1921,-30 1941,-30 1941,-10 1921,-10"/>
<text text-anchor="start" x="1944.63" y="-15.4" font-family="Times-12" font-size="14.00"> &#160;Declarations</text>
<polygon fill="#8dd3c7" stroke="transparent" points="2034,-10 2034,-30 2054,-30 2054,-10 2034,-10"/>
<text text-anchor="start" x="2057.73" y="-15.4" font-family="Times-12" font-size="14.00"> &#160;Module</text>
<polygon fill="#80b1d3" stroke="transparent" points="2120,-10 2120,-30 2140,-30 2140,-10 2120,-10"/>
<text text-anchor="start" x="2143.78" y="-15.4" font-family="Times-12" font-size="14.00"> &#160;Bootstrap</text>
<polygon fill="#fdb462" stroke="transparent" points="2217,-10 2217,-30 2237,-30 2237,-10 2217,-10"/>
<text text-anchor="start" x="2240.67" y="-15.4" font-family="Times-12" font-size="14.00"> &#160;Providers</text>
<polygon fill="#fb8072" stroke="transparent" points="2313,-10 2313,-30 2333,-30 2333,-10 2313,-10"/>
<text text-anchor="start" x="2336.73" y="-15.4" font-family="Times-12" font-size="14.00"> &#160;Exports</text>
<g id="clust1" class="cluster">
<title>cluster_AppModule</title>
<polygon fill="none" stroke="black" stroke-dasharray="1,5" points="1351,-70 1351,-426 1881,-426 1881,-70 1351,-70"/>
</g>
<g id="clust3" class="cluster">
<title>cluster_AppModule_imports</title>
<polygon fill="none" stroke="black" points="1359,-78 1359,-358 1731,-358 1731,-78 1359,-78"/>
</g>
<g id="clust6" class="cluster">
<title>cluster_AppModule_providers</title>
<polygon fill="none" stroke="black" points="1739,-306 1739,-358 1873,-358 1873,-306 1739,-306"/>
</g>
<g id="clust13" class="cluster">
<title>cluster_EntityModule</title>
<polygon fill="none" stroke="black" stroke-dasharray="1,5" points="3623,-222 3623,-290 3839,-290 3839,-222 3623,-222"/>
</g>
<g id="clust15" class="cluster">
<title>cluster_EntityModule_imports</title>
<polygon fill="none" stroke="black" points="3737,-230 3737,-282 3831,-282 3831,-230 3737,-230"/>
</g>
<g id="clust16" class="cluster">
<title>cluster_EntityModule_exports</title>
<polygon fill="none" stroke="black" points="3631,-230 3631,-282 3729,-282 3729,-230 3631,-230"/>
</g>
<g id="clust19" class="cluster">
<title>cluster_GatewayModule</title>
<polygon fill="none" stroke="black" stroke-dasharray="1,5" points="2954,-374 2954,-499 3080,-499 3080,-374 2954,-374"/>
</g>
<g id="clust22" class="cluster">
<title>cluster_GatewayModule_exports</title>
<polygon fill="none" stroke="black" points="2964,-439 2964,-491 3070,-491 3070,-439 2964,-439"/>
</g>
<g id="clust25" class="cluster">
<title>cluster_JobModule</title>
<polygon fill="none" stroke="black" stroke-dasharray="1,5" points="3715,-298 3715,-366 4064,-366 4064,-298 3715,-298"/>
</g>
<g id="clust28" class="cluster">
<title>cluster_JobModule_exports</title>
<polygon fill="none" stroke="black" points="3853,-306 3853,-358 4056,-358 4056,-306 3853,-306"/>
</g>
<g id="clust30" class="cluster">
<title>cluster_JobModule_providers</title>
<polygon fill="none" stroke="black" points="3723,-306 3723,-358 3845,-358 3845,-306 3723,-306"/>
</g>
<g id="clust31" class="cluster">
<title>cluster_LoggerModule</title>
<polygon fill="none" stroke="black" stroke-dasharray="1,5" points="1889,-146 1889,-214 2259,-214 2259,-146 1889,-146"/>
</g>
<g id="clust34" class="cluster">
<title>cluster_LoggerModule_exports</title>
<polygon fill="none" stroke="black" points="2101,-154 2101,-206 2251,-206 2251,-154 2101,-154"/>
</g>
<g id="clust36" class="cluster">
<title>cluster_LoggerModule_providers</title>
<polygon fill="none" stroke="black" points="1897,-154 1897,-206 2093,-206 2093,-154 1897,-154"/>
</g>
<g id="clust37" class="cluster">
<title>cluster_ModelsModule</title>
<polygon fill="none" stroke="black" stroke-dasharray="1,5" points="8,-70 8,-138 1343,-138 1343,-70 8,-70"/>
</g>
<g id="clust40" class="cluster">
<title>cluster_ModelsModule_exports</title>
<polygon fill="none" stroke="black" points="819,-78 819,-130 1335,-130 1335,-78 819,-78"/>
</g>
<g id="clust42" class="cluster">
<title>cluster_ModelsModule_providers</title>
<polygon fill="none" stroke="black" points="16,-78 16,-130 811,-130 811,-78 16,-78"/>
</g>
<g id="clust43" class="cluster">
<title>cluster_ServicesModule</title>
<polygon fill="none" stroke="black" stroke-dasharray="1,5" points="1889,-298 1889,-366 3707,-366 3707,-298 1889,-298"/>
</g>
<g id="clust46" class="cluster">
<title>cluster_ServicesModule_exports</title>
<polygon fill="none" stroke="black" points="2916,-306 2916,-358 3699,-358 3699,-306 2916,-306"/>
</g>
<g id="clust48" class="cluster">
<title>cluster_ServicesModule_providers</title>
<polygon fill="none" stroke="black" points="1897,-306 1897,-358 2908,-358 2908,-306 1897,-306"/>
</g>
<g id="clust49" class="cluster">
<title>cluster_UtilitiesModule</title>
<polygon fill="none" stroke="black" stroke-dasharray="1,5" points="4100,-222 4100,-290 4302,-290 4302,-222 4100,-222"/>
</g>
<g id="clust52" class="cluster">
<title>cluster_UtilitiesModule_exports</title>
<polygon fill="none" stroke="black" points="4214,-230 4214,-282 4294,-282 4294,-230 4214,-230"/>
</g>
<g id="clust54" class="cluster">
<title>cluster_UtilitiesModule_providers</title>
<polygon fill="none" stroke="black" points="4108,-230 4108,-282 4206,-282 4206,-230 4108,-230"/>
</g>
<!-- CommandsModule -->
<g id="node1" class="node">
<title>CommandsModule</title>
<polygon fill="#8dd3c7" stroke="black" points="1629.83,-350 1626.83,-354 1605.83,-354 1602.83,-350 1506.17,-350 1506.17,-314 1629.83,-314 1629.83,-350"/>
<text text-anchor="middle" x="1568" y="-327.8" font-family="Times,serif" font-size="14.00">CommandsModule</text>
</g>
<!-- AppModule -->
<g id="node7" class="node">
<title>AppModule</title>
<polygon fill="#8dd3c7" stroke="black" points="1609.66,-418 1606.66,-422 1585.66,-422 1582.66,-418 1526.34,-418 1526.34,-382 1609.66,-382 1609.66,-418"/>
<text text-anchor="middle" x="1568" y="-395.8" font-family="Times,serif" font-size="14.00">AppModule</text>
</g>
<!-- CommandsModule&#45;&gt;AppModule -->
<g id="edge1" class="edge">
<title>CommandsModule&#45;&gt;AppModule</title>
<path fill="none" stroke="black" d="M1568,-350.22C1568,-350.22 1568,-371.73 1568,-371.73"/>
<polygon fill="black" stroke="black" points="1564.5,-371.73 1568,-381.73 1571.5,-371.73 1564.5,-371.73"/>
</g>
<!-- EntityModule -->
<g id="node2" class="node">
<title>EntityModule</title>
<polygon fill="#8dd3c7" stroke="black" points="1600.77,-198 1597.77,-202 1576.77,-202 1573.77,-198 1507.23,-198 1507.23,-162 1600.77,-162 1600.77,-198"/>
<text text-anchor="middle" x="1554" y="-175.8" font-family="Times,serif" font-size="14.00">EntityModule</text>
</g>
<!-- EntityModule&#45;&gt;CommandsModule -->
<g id="edge8" class="edge">
<title>EntityModule&#45;&gt;CommandsModule</title>
<path fill="none" stroke="black" d="M1569.63,-198.03C1569.63,-198.03 1569.63,-303.99 1569.63,-303.99"/>
<polygon fill="black" stroke="black" points="1566.13,-303.99 1569.63,-313.99 1573.13,-303.99 1566.13,-303.99"/>
</g>
<!-- ServicesModule -->
<g id="node5" class="node">
<title>ServicesModule</title>
<polygon fill="#8dd3c7" stroke="black" points="1723.47,-274 1720.47,-278 1699.47,-278 1696.47,-274 1616.53,-274 1616.53,-238 1723.47,-238 1723.47,-274"/>
<text text-anchor="middle" x="1670" y="-251.8" font-family="Times,serif" font-size="14.00">ServicesModule</text>
</g>
<!-- EntityModule&#45;&gt;ServicesModule -->
<g id="edge31" class="edge">
<title>EntityModule&#45;&gt;ServicesModule</title>
<path fill="none" stroke="black" d="M1585.26,-198.03C1585.26,-218.77 1585.26,-250 1585.26,-250 1585.26,-250 1606.33,-250 1606.33,-250"/>
<polygon fill="black" stroke="black" points="1606.33,-253.5 1616.33,-250 1606.33,-246.5 1606.33,-253.5"/>
</g>
<!-- EntityModule&#45;&gt;AppModule -->
<g id="edge2" class="edge">
<title>EntityModule&#45;&gt;AppModule</title>
<path fill="none" stroke="black" d="M1507.13,-180C1496.14,-180 1487.55,-180 1487.55,-180 1487.55,-180 1487.55,-394 1487.55,-394 1487.55,-394 1515.89,-394 1515.89,-394"/>
<polygon fill="black" stroke="black" points="1515.89,-397.5 1525.89,-394 1515.89,-390.5 1515.89,-397.5"/>
</g>
<!-- JobModule  -->
<g id="node10" class="node">
<title>JobModule </title>
<polygon fill="#fb8072" stroke="black" points="3721.5,-274 3638.5,-274 3638.5,-238 3721.5,-238 3721.5,-274"/>
<text text-anchor="middle" x="3680" y="-251.8" font-family="Times,serif" font-size="14.00">JobModule </text>
</g>
<!-- EntityModule&#45;&gt;JobModule  -->
<g id="edge12" class="edge">
<title>EntityModule&#45;&gt;JobModule </title>
<path fill="none" stroke="black" stroke-dasharray="5,2" d="M1554,-198.04C1554,-210.56 1554,-225 1554,-225 1554,-225 3680,-225 3680,-225 3680,-225 3680,-227.97 3680,-227.97"/>
<polygon fill="black" stroke="black" points="3676.5,-227.97 3680,-237.97 3683.5,-227.97 3676.5,-227.97"/>
</g>
<!-- GatewayModule -->
<g id="node11" class="node">
<title>GatewayModule</title>
<polygon fill="#8dd3c7" stroke="black" points="3071.8,-418 3068.8,-422 3047.8,-422 3044.8,-418 2962.2,-418 2962.2,-382 3071.8,-382 3071.8,-418"/>
<text text-anchor="middle" x="3017" y="-395.8" font-family="Times,serif" font-size="14.00">GatewayModule</text>
</g>
<!-- EntityModule&#45;&gt;GatewayModule -->
<g id="edge13" class="edge">
<title>EntityModule&#45;&gt;GatewayModule</title>
<path fill="none" stroke="black" d="M1538.37,-198.19C1538.37,-213.18 1538.37,-232 1538.37,-232 1538.37,-232 3054.91,-232 3054.91,-232 3054.91,-232 3054.91,-371.7 3054.91,-371.7"/>
<polygon fill="black" stroke="black" points="3051.41,-371.7 3054.91,-381.7 3058.41,-371.7 3051.41,-371.7"/>
</g>
<!-- LoggerModule -->
<g id="node3" class="node">
<title>LoggerModule</title>
<polygon fill="#8dd3c7" stroke="black" points="1722.98,-122 1719.98,-126 1698.98,-126 1695.98,-122 1623.02,-122 1623.02,-86 1722.98,-86 1722.98,-122"/>
<text text-anchor="middle" x="1673" y="-99.8" font-family="Times,serif" font-size="14.00">LoggerModule</text>
</g>
<!-- LoggerModule&#45;&gt;CommandsModule -->
<g id="edge9" class="edge">
<title>LoggerModule&#45;&gt;CommandsModule</title>
<path fill="none" stroke="black" d="M1622.97,-110C1614.67,-110 1608.7,-110 1608.7,-110 1608.7,-110 1608.7,-303.83 1608.7,-303.83"/>
<polygon fill="black" stroke="black" points="1605.2,-303.83 1608.7,-313.83 1612.2,-303.83 1605.2,-303.83"/>
</g>
<!-- ModelsModule -->
<g id="node4" class="node">
<title>ModelsModule</title>
<polygon fill="#8dd3c7" stroke="black" points="1468.55,-198 1465.55,-202 1444.55,-202 1441.55,-198 1367.45,-198 1367.45,-162 1468.55,-162 1468.55,-198"/>
<text text-anchor="middle" x="1418" y="-175.8" font-family="Times,serif" font-size="14.00">ModelsModule</text>
</g>
<!-- LoggerModule&#45;&gt;ModelsModule -->
<g id="edge21" class="edge">
<title>LoggerModule&#45;&gt;ModelsModule</title>
<path fill="none" stroke="black" d="M1622.92,-98C1548.66,-98 1418,-98 1418,-98 1418,-98 1418,-151.8 1418,-151.8"/>
<polygon fill="black" stroke="black" points="1414.5,-151.8 1418,-161.8 1421.5,-151.8 1414.5,-151.8"/>
</g>
<!-- LoggerModule&#45;&gt;AppModule -->
<g id="edge3" class="edge">
<title>LoggerModule&#45;&gt;AppModule</title>
<path fill="none" stroke="black" d="M1722.99,-113C1732.19,-113 1738.96,-113 1738.96,-113 1738.96,-113 1738.96,-406 1738.96,-406 1738.96,-406 1619.82,-406 1619.82,-406"/>
<polygon fill="black" stroke="black" points="1619.82,-402.5 1609.82,-406 1619.82,-409.5 1619.82,-402.5"/>
</g>
<!-- AiArtLoggerService  -->
<g id="node16" class="node">
<title>AiArtLoggerService </title>
<polygon fill="#fb8072" stroke="black" points="2243.06,-198 2108.94,-198 2108.94,-162 2243.06,-162 2243.06,-198"/>
<text text-anchor="middle" x="2176" y="-175.8" font-family="Times,serif" font-size="14.00">AiArtLoggerService </text>
</g>
<!-- LoggerModule&#45;&gt;AiArtLoggerService  -->
<g id="edge19" class="edge">
<title>LoggerModule&#45;&gt;AiArtLoggerService </title>
<path fill="none" stroke="black" stroke-dasharray="5,2" d="M1723.07,-95C1850.3,-95 2176,-95 2176,-95 2176,-95 2176,-151.97 2176,-151.97"/>
<polygon fill="black" stroke="black" points="2172.5,-151.97 2176,-161.97 2179.5,-151.97 2172.5,-151.97"/>
</g>
<!-- ModelsModule&#45;&gt;ServicesModule -->
<g id="edge32" class="edge">
<title>ModelsModule&#45;&gt;ServicesModule</title>
<path fill="none" stroke="black" d="M1434.92,-198.2C1434.92,-222.36 1434.92,-262 1434.92,-262 1434.92,-262 1606.36,-262 1606.36,-262"/>
<polygon fill="black" stroke="black" points="1606.36,-265.5 1616.36,-262 1606.36,-258.5 1606.36,-265.5"/>
</g>
<!-- ModelsModule&#45;&gt;AppModule -->
<g id="edge4" class="edge">
<title>ModelsModule&#45;&gt;AppModule</title>
<path fill="none" stroke="black" d="M1401.08,-198.11C1401.08,-251.74 1401.08,-406 1401.08,-406 1401.08,-406 1516.31,-406 1516.31,-406"/>
<polygon fill="black" stroke="black" points="1516.31,-409.5 1526.31,-406 1516.31,-402.5 1516.31,-409.5"/>
</g>
<!-- AiArtModel  -->
<g id="node18" class="node">
<title>AiArtModel </title>
<polygon fill="#fb8072" stroke="black" points="1327.21,-122 1238.79,-122 1238.79,-86 1327.21,-86 1327.21,-122"/>
<text text-anchor="middle" x="1283" y="-99.8" font-family="Times,serif" font-size="14.00">AiArtModel </text>
</g>
<!-- ModelsModule&#45;&gt;AiArtModel  -->
<g id="edge22" class="edge">
<title>ModelsModule&#45;&gt;AiArtModel </title>
<path fill="none" stroke="black" stroke-dasharray="5,2" d="M1367.35,-166C1329.04,-166 1283,-166 1283,-166 1283,-166 1283,-132.27 1283,-132.27"/>
<polygon fill="black" stroke="black" points="1286.5,-132.27 1283,-122.27 1279.5,-132.27 1286.5,-132.27"/>
</g>
<!-- AiStoryModel  -->
<g id="node19" class="node">
<title>AiStoryModel </title>
<polygon fill="#fb8072" stroke="black" points="1220.38,-122 1119.62,-122 1119.62,-86 1220.38,-86 1220.38,-122"/>
<text text-anchor="middle" x="1170" y="-99.8" font-family="Times,serif" font-size="14.00">AiStoryModel </text>
</g>
<!-- ModelsModule&#45;&gt;AiStoryModel  -->
<g id="edge23" class="edge">
<title>ModelsModule&#45;&gt;AiStoryModel </title>
<path fill="none" stroke="black" stroke-dasharray="5,2" d="M1367.22,-170C1294.66,-170 1170,-170 1170,-170 1170,-170 1170,-132.03 1170,-132.03"/>
<polygon fill="black" stroke="black" points="1173.5,-132.03 1170,-122.03 1166.5,-132.03 1173.5,-132.03"/>
</g>
<!-- CogView2Model  -->
<g id="node20" class="node">
<title>CogView2Model </title>
<polygon fill="#fb8072" stroke="black" points="1101.21,-122 984.79,-122 984.79,-86 1101.21,-86 1101.21,-122"/>
<text text-anchor="middle" x="1043" y="-99.8" font-family="Times,serif" font-size="14.00">CogView2Model </text>
</g>
<!-- ModelsModule&#45;&gt;CogView2Model  -->
<g id="edge24" class="edge">
<title>ModelsModule&#45;&gt;CogView2Model </title>
<path fill="none" stroke="black" stroke-dasharray="5,2" d="M1367.43,-173C1265.07,-173 1043,-173 1043,-173 1043,-173 1043,-132.13 1043,-132.13"/>
<polygon fill="black" stroke="black" points="1046.5,-132.13 1043,-122.13 1039.5,-132.13 1046.5,-132.13"/>
</g>
<!-- WomboDreamModel  -->
<g id="node21" class="node">
<title>WomboDreamModel </title>
<polygon fill="#fb8072" stroke="black" points="966.74,-122 827.26,-122 827.26,-86 966.74,-86 966.74,-122"/>
<text text-anchor="middle" x="897" y="-99.8" font-family="Times,serif" font-size="14.00">WomboDreamModel </text>
</g>
<!-- ModelsModule&#45;&gt;WomboDreamModel  -->
<g id="edge25" class="edge">
<title>ModelsModule&#45;&gt;WomboDreamModel </title>
<path fill="none" stroke="black" stroke-dasharray="5,2" d="M1367.1,-177C1236,-177 897,-177 897,-177 897,-177 897,-132.04 897,-132.04"/>
<polygon fill="black" stroke="black" points="900.5,-132.04 897,-122.04 893.5,-132.04 900.5,-132.04"/>
</g>
<!-- ServicesModule&#45;&gt;CommandsModule -->
<g id="edge10" class="edge">
<title>ServicesModule&#45;&gt;CommandsModule</title>
<path fill="none" stroke="black" d="M1623.09,-274.01C1623.09,-274.01 1623.09,-303.85 1623.09,-303.85"/>
<polygon fill="black" stroke="black" points="1619.59,-303.85 1623.09,-313.85 1626.59,-303.85 1619.59,-303.85"/>
</g>
<!-- ServicesModule&#45;&gt;AppModule -->
<g id="edge5" class="edge">
<title>ServicesModule&#45;&gt;AppModule</title>
<path fill="none" stroke="black" d="M1676.57,-274.04C1676.57,-311.45 1676.57,-394 1676.57,-394 1676.57,-394 1619.67,-394 1619.67,-394"/>
<polygon fill="black" stroke="black" points="1619.67,-390.5 1609.67,-394 1619.67,-397.5 1619.67,-390.5"/>
</g>
<!-- AiStoryService  -->
<g id="node27" class="node">
<title>AiStoryService </title>
<polygon fill="#fb8072" stroke="black" points="3283.81,-350 3178.19,-350 3178.19,-314 3283.81,-314 3283.81,-350"/>
<text text-anchor="middle" x="3231" y="-327.8" font-family="Times,serif" font-size="14.00">AiStoryService </text>
</g>
<!-- ServicesModule&#45;&gt;AiStoryService  -->
<g id="edge34" class="edge">
<title>ServicesModule&#45;&gt;AiStoryService </title>
<path fill="none" stroke="black" stroke-dasharray="5,2" d="M1723.73,-250C1998.22,-250 3231,-250 3231,-250 3231,-250 3231,-303.8 3231,-303.8"/>
<polygon fill="black" stroke="black" points="3227.5,-303.8 3231,-313.8 3234.5,-303.8 3227.5,-303.8"/>
</g>
<!-- AmqpService  -->
<g id="node28" class="node">
<title>AmqpService </title>
<polygon fill="#fb8072" stroke="black" points="3160.48,-350 3063.52,-350 3063.52,-314 3160.48,-314 3160.48,-350"/>
<text text-anchor="middle" x="3112" y="-327.8" font-family="Times,serif" font-size="14.00">AmqpService </text>
</g>
<!-- ServicesModule&#45;&gt;AmqpService  -->
<g id="edge35" class="edge">
<title>ServicesModule&#45;&gt;AmqpService </title>
<path fill="none" stroke="black" stroke-dasharray="5,2" d="M1723.9,-252C1985.68,-252 3112,-252 3112,-252 3112,-252 3112,-303.85 3112,-303.85"/>
<polygon fill="black" stroke="black" points="3108.5,-303.85 3112,-313.85 3115.5,-303.85 3108.5,-303.85"/>
</g>
<!-- CogView2Service  -->
<g id="node29" class="node">
<title>CogView2Service </title>
<polygon fill="#fb8072" stroke="black" points="3046.13,-350 2923.87,-350 2923.87,-314 3046.13,-314 3046.13,-350"/>
<text text-anchor="middle" x="2985" y="-327.8" font-family="Times,serif" font-size="14.00">CogView2Service </text>
</g>
<!-- ServicesModule&#45;&gt;CogView2Service  -->
<g id="edge36" class="edge">
<title>ServicesModule&#45;&gt;CogView2Service </title>
<path fill="none" stroke="black" stroke-dasharray="5,2" d="M1723.59,-255C1970.32,-255 2985,-255 2985,-255 2985,-255 2985,-303.75 2985,-303.75"/>
<polygon fill="black" stroke="black" points="2981.5,-303.75 2985,-313.75 2988.5,-303.75 2981.5,-303.75"/>
</g>
<!-- DalleMiniService  -->
<g id="node30" class="node">
<title>DalleMiniService </title>
<polygon fill="#fb8072" stroke="black" points="3690.52,-350 3571.48,-350 3571.48,-314 3690.52,-314 3690.52,-350"/>
<text text-anchor="middle" x="3631" y="-327.8" font-family="Times,serif" font-size="14.00">DalleMiniService </text>
</g>
<!-- ServicesModule&#45;&gt;DalleMiniService  -->
<g id="edge37" class="edge">
<title>ServicesModule&#45;&gt;DalleMiniService </title>
<path fill="none" stroke="black" stroke-dasharray="5,2" d="M1723.52,-241C2035.46,-241 3605.12,-241 3605.12,-241 3605.12,-241 3605.12,-303.58 3605.12,-303.58"/>
<polygon fill="black" stroke="black" points="3601.62,-303.58 3605.12,-313.58 3608.62,-303.58 3601.62,-303.58"/>
</g>
<!-- HelpService  -->
<g id="node31" class="node">
<title>HelpService </title>
<polygon fill="#fb8072" stroke="black" points="3553.19,-350 3464.81,-350 3464.81,-314 3553.19,-314 3553.19,-350"/>
<text text-anchor="middle" x="3509" y="-327.8" font-family="Times,serif" font-size="14.00">HelpService </text>
</g>
<!-- ServicesModule&#45;&gt;HelpService  -->
<g id="edge38" class="edge">
<title>ServicesModule&#45;&gt;HelpService </title>
<path fill="none" stroke="black" stroke-dasharray="5,2" d="M1723.55,-244C2026.19,-244 3509,-244 3509,-244 3509,-244 3509,-303.77 3509,-303.77"/>
<polygon fill="black" stroke="black" points="3505.5,-303.77 3509,-313.77 3512.5,-303.77 3505.5,-303.77"/>
</g>
<!-- WomboDreamService  -->
<g id="node32" class="node">
<title>WomboDreamService </title>
<polygon fill="#fb8072" stroke="black" points="3446.17,-350 3301.83,-350 3301.83,-314 3446.17,-314 3446.17,-350"/>
<text text-anchor="middle" x="3374" y="-327.8" font-family="Times,serif" font-size="14.00">WomboDreamService </text>
</g>
<!-- ServicesModule&#45;&gt;WomboDreamService  -->
<g id="edge39" class="edge">
<title>ServicesModule&#45;&gt;WomboDreamService </title>
<path fill="none" stroke="black" stroke-dasharray="5,2" d="M1723.81,-247C2013.46,-247 3374,-247 3374,-247 3374,-247 3374,-303.97 3374,-303.97"/>
<polygon fill="black" stroke="black" points="3370.5,-303.97 3374,-313.97 3377.5,-303.97 3370.5,-303.97"/>
</g>
<!-- UtilitiesModule -->
<g id="node6" class="node">
<title>UtilitiesModule</title>
<polygon fill="#8dd3c7" stroke="black" points="1723.16,-198 1720.16,-202 1699.16,-202 1696.16,-198 1618.84,-198 1618.84,-162 1723.16,-162 1723.16,-198"/>
<text text-anchor="middle" x="1671" y="-175.8" font-family="Times,serif" font-size="14.00">UtilitiesModule</text>
</g>
<!-- UtilitiesModule&#45;&gt;ServicesModule -->
<g id="edge33" class="edge">
<title>UtilitiesModule&#45;&gt;ServicesModule</title>
<path fill="none" stroke="black" d="M1644.84,-198.01C1644.84,-198.01 1644.84,-227.85 1644.84,-227.85"/>
<polygon fill="black" stroke="black" points="1641.34,-227.85 1644.84,-237.85 1648.34,-227.85 1641.34,-227.85"/>
</g>
<!-- UtilitiesModule&#45;&gt;AppModule -->
<g id="edge6" class="edge">
<title>UtilitiesModule&#45;&gt;AppModule</title>
<path fill="none" stroke="black" d="M1723.35,-180C1728.13,-180 1731.22,-180 1731.22,-180 1731.22,-180 1731.22,-400 1731.22,-400 1731.22,-400 1620.03,-400 1620.03,-400"/>
<polygon fill="black" stroke="black" points="1620.03,-396.5 1610.03,-400 1620.03,-403.5 1620.03,-396.5"/>
</g>
<!-- Collage  -->
<g id="node39" class="node">
<title>Collage </title>
<polygon fill="#fb8072" stroke="black" points="4285.55,-274 4222.45,-274 4222.45,-238 4285.55,-238 4285.55,-274"/>
<text text-anchor="middle" x="4254" y="-251.8" font-family="Times,serif" font-size="14.00">Collage </text>
</g>
<!-- UtilitiesModule&#45;&gt;Collage  -->
<g id="edge46" class="edge">
<title>UtilitiesModule&#45;&gt;Collage </title>
<path fill="none" stroke="black" stroke-dasharray="5,2" d="M1671,-198.17C1671,-202.05 1671,-205 1671,-205 1671,-205 4254,-205 4254,-205 4254,-205 4254,-227.88 4254,-227.88"/>
<polygon fill="black" stroke="black" points="4250.5,-227.88 4254,-237.88 4257.5,-227.88 4250.5,-227.88"/>
</g>
<!-- BotGateway -->
<g id="node8" class="node">
<title>BotGateway</title>
<ellipse fill="#fdb462" stroke="black" cx="1806" cy="-332" rx="59.11" ry="18"/>
<text text-anchor="middle" x="1806" y="-327.8" font-family="Times,serif" font-size="14.00">BotGateway</text>
</g>
<!-- BotGateway&#45;&gt;AppModule -->
<g id="edge7" class="edge">
<title>BotGateway&#45;&gt;AppModule</title>
<path fill="none" stroke="black" d="M1786.23,-349.36C1786.23,-372.89 1786.23,-412 1786.23,-412 1786.23,-412 1619.82,-412 1619.82,-412"/>
<polygon fill="black" stroke="black" points="1619.82,-408.5 1609.82,-412 1619.82,-415.5 1619.82,-408.5"/>
</g>
<!-- BotGateway&#45;&gt;GatewayModule -->
<g id="edge15" class="edge">
<title>BotGateway&#45;&gt;GatewayModule</title>
<path fill="none" stroke="black" d="M1825.77,-349.11C1825.77,-365.57 1825.77,-388 1825.77,-388 1825.77,-388 2952.33,-388 2952.33,-388"/>
<polygon fill="black" stroke="black" points="2952.33,-391.5 2962.33,-388 2952.33,-384.5 2952.33,-391.5"/>
</g>
<!-- JobModule -->
<g id="node9" class="node">
<title>JobModule</title>
<polygon fill="#8dd3c7" stroke="black" points="3823.49,-274 3820.49,-278 3799.49,-278 3796.49,-274 3744.51,-274 3744.51,-238 3823.49,-238 3823.49,-274"/>
<text text-anchor="middle" x="3784" y="-251.8" font-family="Times,serif" font-size="14.00">JobModule</text>
</g>
<!-- JobModule&#45;&gt;EntityModule -->
<g id="edge11" class="edge">
<title>JobModule&#45;&gt;EntityModule</title>
<path fill="none" stroke="black" d="M3784,-237.89C3784,-228.1 3784,-218 3784,-218 3784,-218 1522.74,-218 1522.74,-218 1522.74,-218 1522.74,-208.11 1522.74,-208.11"/>
<polygon fill="black" stroke="black" points="1526.24,-208.11 1522.74,-198.11 1519.24,-208.11 1526.24,-208.11"/>
</g>
<!-- JobResolver  -->
<g id="node13" class="node">
<title>JobResolver </title>
<polygon fill="#fb8072" stroke="black" points="3949.21,-350 3860.79,-350 3860.79,-314 3949.21,-314 3949.21,-350"/>
<text text-anchor="middle" x="3905" y="-327.8" font-family="Times,serif" font-size="14.00">JobResolver </text>
</g>
<!-- JobModule&#45;&gt;JobResolver  -->
<g id="edge16" class="edge">
<title>JobModule&#45;&gt;JobResolver </title>
<path fill="none" stroke="black" stroke-dasharray="5,2" d="M3823.62,-262C3858.91,-262 3905,-262 3905,-262 3905,-262 3905,-303.97 3905,-303.97"/>
<polygon fill="black" stroke="black" points="3901.5,-303.97 3905,-313.97 3908.5,-303.97 3901.5,-303.97"/>
</g>
<!-- JobService  -->
<g id="node14" class="node">
<title>JobService </title>
<polygon fill="#fb8072" stroke="black" points="4048.42,-350 3967.58,-350 3967.58,-314 4048.42,-314 4048.42,-350"/>
<text text-anchor="middle" x="4008" y="-327.8" font-family="Times,serif" font-size="14.00">JobService </text>
</g>
<!-- JobModule&#45;&gt;JobService  -->
<g id="edge17" class="edge">
<title>JobModule&#45;&gt;JobService </title>
<path fill="none" stroke="black" stroke-dasharray="5,2" d="M3823.53,-250C3887.84,-250 4008,-250 4008,-250 4008,-250 4008,-303.8 4008,-303.8"/>
<polygon fill="black" stroke="black" points="4004.5,-303.8 4008,-313.8 4011.5,-303.8 4004.5,-303.8"/>
</g>
<!-- BotGateway  -->
<g id="node12" class="node">
<title>BotGateway </title>
<polygon fill="#fb8072" stroke="black" points="3061.98,-483 2972.02,-483 2972.02,-447 3061.98,-447 3061.98,-483"/>
<text text-anchor="middle" x="3017" y="-460.8" font-family="Times,serif" font-size="14.00">BotGateway </text>
</g>
<!-- GatewayModule&#45;&gt;BotGateway  -->
<g id="edge14" class="edge">
<title>GatewayModule&#45;&gt;BotGateway </title>
<path fill="none" stroke="black" stroke-dasharray="5,2" d="M3017,-418.11C3017,-418.11 3017,-436.99 3017,-436.99"/>
<polygon fill="black" stroke="black" points="3013.5,-436.99 3017,-446.99 3020.5,-436.99 3013.5,-436.99"/>
</g>
<!-- JobService -->
<g id="node15" class="node">
<title>JobService</title>
<ellipse fill="#fdb462" stroke="black" cx="3784" cy="-332" rx="53.31" ry="18"/>
<text text-anchor="middle" x="3784" y="-327.8" font-family="Times,serif" font-size="14.00">JobService</text>
</g>
<!-- JobService&#45;&gt;JobModule -->
<g id="edge18" class="edge">
<title>JobService&#45;&gt;JobModule</title>
<path fill="none" stroke="black" d="M3784,-313.99C3784,-313.99 3784,-284.15 3784,-284.15"/>
<polygon fill="black" stroke="black" points="3787.5,-284.15 3784,-274.15 3780.5,-284.15 3787.5,-284.15"/>
</g>
<!-- AiArtLoggerService -->
<g id="node17" class="node">
<title>AiArtLoggerService</title>
<ellipse fill="#fdb462" stroke="black" cx="1995" cy="-180" rx="90.31" ry="18"/>
<text text-anchor="middle" x="1995" y="-175.8" font-family="Times,serif" font-size="14.00">AiArtLoggerService</text>
</g>
<!-- AiArtLoggerService&#45;&gt;LoggerModule -->
<g id="edge20" class="edge">
<title>AiArtLoggerService&#45;&gt;LoggerModule</title>
<path fill="none" stroke="black" d="M1995,-161.99C1995,-139.51 1995,-104 1995,-104 1995,-104 1733.31,-104 1733.31,-104"/>
<polygon fill="black" stroke="black" points="1733.31,-100.5 1723.31,-104 1733.31,-107.5 1733.31,-100.5"/>
</g>
<!-- AiArtModel -->
<g id="node22" class="node">
<title>AiArtModel</title>
<ellipse fill="#fdb462" stroke="black" cx="744" cy="-104" rx="58.55" ry="18"/>
<text text-anchor="middle" x="744" y="-99.8" font-family="Times,serif" font-size="14.00">AiArtModel</text>
</g>
<!-- AiArtModel&#45;&gt;ModelsModule -->
<g id="edge26" class="edge">
<title>AiArtModel&#45;&gt;ModelsModule</title>
<path fill="none" stroke="black" d="M744,-122.01C744,-144.49 744,-180 744,-180 744,-180 1357.34,-180 1357.34,-180"/>
<polygon fill="black" stroke="black" points="1357.34,-183.5 1367.34,-180 1357.34,-176.5 1357.34,-183.5"/>
</g>
<!-- AiStoryModel -->
<g id="node23" class="node">
<title>AiStoryModel</title>
<ellipse fill="#fdb462" stroke="black" cx="600" cy="-104" rx="66.65" ry="18"/>
<text text-anchor="middle" x="600" y="-99.8" font-family="Times,serif" font-size="14.00">AiStoryModel</text>
</g>
<!-- AiStoryModel&#45;&gt;ModelsModule -->
<g id="edge27" class="edge">
<title>AiStoryModel&#45;&gt;ModelsModule</title>
<path fill="none" stroke="black" d="M600,-122.15C600,-145.76 600,-184 600,-184 600,-184 1357.45,-184 1357.45,-184"/>
<polygon fill="black" stroke="black" points="1357.45,-187.5 1367.45,-184 1357.45,-180.5 1357.45,-187.5"/>
</g>
<!-- AuthModel -->
<g id="node24" class="node">
<title>AuthModel</title>
<ellipse fill="#fdb462" stroke="black" cx="460" cy="-104" rx="55.62" ry="18"/>
<text text-anchor="middle" x="460" y="-99.8" font-family="Times,serif" font-size="14.00">AuthModel</text>
</g>
<!-- AuthModel&#45;&gt;ModelsModule -->
<g id="edge28" class="edge">
<title>AuthModel&#45;&gt;ModelsModule</title>
<path fill="none" stroke="black" d="M460,-122.23C460,-146.93 460,-188 460,-188 460,-188 1357.17,-188 1357.17,-188"/>
<polygon fill="black" stroke="black" points="1357.17,-191.5 1367.17,-188 1357.17,-184.5 1357.17,-191.5"/>
</g>
<!-- CogView2Model -->
<g id="node25" class="node">
<title>CogView2Model</title>
<ellipse fill="#fdb462" stroke="black" cx="308" cy="-104" rx="78.17" ry="18"/>
<text text-anchor="middle" x="308" y="-99.8" font-family="Times,serif" font-size="14.00">CogView2Model</text>
</g>
<!-- CogView2Model&#45;&gt;ModelsModule -->
<g id="edge29" class="edge">
<title>CogView2Model&#45;&gt;ModelsModule</title>
<path fill="none" stroke="black" d="M308,-122.03C308,-147.51 308,-191 308,-191 308,-191 1357.42,-191 1357.42,-191"/>
<polygon fill="black" stroke="black" points="1357.42,-194.5 1367.42,-191 1357.42,-187.5 1357.42,-194.5"/>
</g>
<!-- WomboDreamModel -->
<g id="node26" class="node">
<title>WomboDreamModel</title>
<ellipse fill="#fdb462" stroke="black" cx="118" cy="-104" rx="93.76" ry="18"/>
<text text-anchor="middle" x="118" y="-99.8" font-family="Times,serif" font-size="14.00">WomboDreamModel</text>
</g>
<!-- WomboDreamModel&#45;&gt;ModelsModule -->
<g id="edge30" class="edge">
<title>WomboDreamModel&#45;&gt;ModelsModule</title>
<path fill="none" stroke="black" d="M118,-122.42C118,-149.01 118,-195 118,-195 118,-195 1357.44,-195 1357.44,-195"/>
<polygon fill="black" stroke="black" points="1357.44,-198.5 1367.44,-195 1357.44,-191.5 1357.44,-198.5"/>
</g>
<!-- AiStoryService -->
<g id="node33" class="node">
<title>AiStoryService</title>
<ellipse fill="#fdb462" stroke="black" cx="2304" cy="-332" rx="70.64" ry="18"/>
<text text-anchor="middle" x="2304" y="-327.8" font-family="Times,serif" font-size="14.00">AiStoryService</text>
</g>
<!-- AiStoryService&#45;&gt;ServicesModule -->
<g id="edge40" class="edge">
<title>AiStoryService&#45;&gt;ServicesModule</title>
<path fill="none" stroke="black" d="M2238.35,-324.94C2238.35,-307.91 2238.35,-266 2238.35,-266 2238.35,-266 1733.73,-266 1733.73,-266"/>
<polygon fill="black" stroke="black" points="1733.73,-262.5 1723.73,-266 1733.73,-269.5 1733.73,-262.5"/>
</g>
<!-- AmqpService -->
<g id="node34" class="node">
<title>AmqpService</title>
<ellipse fill="#fdb462" stroke="black" cx="2151" cy="-332" rx="64.26" ry="18"/>
<text text-anchor="middle" x="2151" y="-327.8" font-family="Times,serif" font-size="14.00">AmqpService</text>
</g>
<!-- AmqpService&#45;&gt;ServicesModule -->
<g id="edge41" class="edge">
<title>AmqpService&#45;&gt;ServicesModule</title>
<path fill="none" stroke="black" d="M2097.79,-321.88C2097.79,-304.07 2097.79,-269 2097.79,-269 2097.79,-269 1733.75,-269 1733.75,-269"/>
<polygon fill="black" stroke="black" points="1733.75,-265.5 1723.75,-269 1733.75,-272.5 1733.75,-265.5"/>
</g>
<!-- CogView2Service -->
<g id="node35" class="node">
<title>CogView2Service</title>
<ellipse fill="#fdb462" stroke="black" cx="1987" cy="-332" rx="81.66" ry="18"/>
<text text-anchor="middle" x="1987" y="-327.8" font-family="Times,serif" font-size="14.00">CogView2Service</text>
</g>
<!-- CogView2Service&#45;&gt;ServicesModule -->
<g id="edge42" class="edge">
<title>CogView2Service&#45;&gt;ServicesModule</title>
<path fill="none" stroke="black" d="M1987,-314C1987,-296.32 1987,-272 1987,-272 1987,-272 1733.77,-272 1733.77,-272"/>
<polygon fill="black" stroke="black" points="1733.77,-268.5 1723.77,-272 1733.77,-275.5 1733.77,-268.5"/>
</g>
<!-- DalleMiniService -->
<g id="node36" class="node">
<title>DalleMiniService</title>
<ellipse fill="#fdb462" stroke="black" cx="2820" cy="-332" rx="79.87" ry="18"/>
<text text-anchor="middle" x="2820" y="-327.8" font-family="Times,serif" font-size="14.00">DalleMiniService</text>
</g>
<!-- DalleMiniService&#45;&gt;ServicesModule -->
<g id="edge43" class="edge">
<title>DalleMiniService&#45;&gt;ServicesModule</title>
<path fill="none" stroke="black" d="M2820,-313.71C2820,-291.79 2820,-258 2820,-258 2820,-258 1733.54,-258 1733.54,-258"/>
<polygon fill="black" stroke="black" points="1733.54,-254.5 1723.54,-258 1733.54,-261.5 1733.54,-254.5"/>
</g>
<!-- HelpService -->
<g id="node37" class="node">
<title>HelpService</title>
<ellipse fill="#fdb462" stroke="black" cx="2664" cy="-332" rx="58.53" ry="18"/>
<text text-anchor="middle" x="2664" y="-327.8" font-family="Times,serif" font-size="14.00">HelpService</text>
</g>
<!-- HelpService&#45;&gt;ServicesModule -->
<g id="edge44" class="edge">
<title>HelpService&#45;&gt;ServicesModule</title>
<path fill="none" stroke="black" d="M2664,-313.72C2664,-292.68 2664,-261 2664,-261 2664,-261 1733.79,-261 1733.79,-261"/>
<polygon fill="black" stroke="black" points="1733.79,-257.5 1723.79,-261 1733.79,-264.5 1733.79,-257.5"/>
</g>
<!-- WomboDreamService -->
<g id="node38" class="node">
<title>WomboDreamService</title>
<ellipse fill="#fdb462" stroke="black" cx="2490" cy="-332" rx="97.25" ry="18"/>
<text text-anchor="middle" x="2490" y="-327.8" font-family="Times,serif" font-size="14.00">WomboDreamService</text>
</g>
<!-- WomboDreamService&#45;&gt;ServicesModule -->
<g id="edge45" class="edge">
<title>WomboDreamService&#45;&gt;ServicesModule</title>
<path fill="none" stroke="black" d="M2490,-313.87C2490,-293.43 2490,-263 2490,-263 2490,-263 1733.49,-263 1733.49,-263"/>
<polygon fill="black" stroke="black" points="1733.49,-259.5 1723.49,-263 1733.49,-266.5 1733.49,-259.5"/>
</g>
<!-- Collage -->
<g id="node40" class="node">
<title>Collage</title>
<ellipse fill="#fdb462" stroke="black" cx="4157" cy="-256" rx="41.15" ry="18"/>
<text text-anchor="middle" x="4157" y="-251.8" font-family="Times,serif" font-size="14.00">Collage</text>
</g>
<!-- Collage&#45;&gt;UtilitiesModule -->
<g id="edge47" class="edge">
<title>Collage&#45;&gt;UtilitiesModule</title>
<path fill="none" stroke="black" d="M4157,-237.85C4157,-225.73 4157,-212 4157,-212 4157,-212 1697.16,-212 1697.16,-212 1697.16,-212 1697.16,-208.24 1697.16,-208.24"/>
<polygon fill="black" stroke="black" points="1700.66,-208.24 1697.16,-198.24 1693.66,-208.24 1700.66,-208.24"/>
</g>
</g>
</svg>
