<?xml version="1.0" encoding="UTF-8" standalone="no"?>
<!DOCTYPE svg PUBLIC "-//W3C//DTD SVG 1.1//EN"
 "http://www.w3.org/Graphics/SVG/1.1/DTD/svg11.dtd">
<!-- Generated by graphviz version 5.0.0 (20220707.1540)
 -->
<!-- Title: dependencies Pages: 1 -->
<svg width="3556pt" height="315pt"
 viewBox="0.00 0.00 3556.00 314.80" xmlns="http://www.w3.org/2000/svg" xmlns:xlink="http://www.w3.org/1999/xlink">
<g id="graph0" class="graph" transform="scale(1 1) rotate(0) translate(4 310.8)">
<title>dependencies</title>
<polygon fill="white" stroke="transparent" points="-4,4 -4,-310.8 3552,-310.8 3552,4 -4,4"/>
<text text-anchor="middle" x="1774" y="-8.2" font-family="sans-serif" font-size="14.00">dependencies</text>
<g id="clust1" class="cluster">
<title>cluster_AppModule</title>
<polygon fill="none" stroke="black" stroke-dasharray="1,5" points="1458,-32.8 1458,-298.8 1714,-298.8 1714,-32.8 1458,-32.8"/>
</g>
<g id="clust3" class="cluster">
<title>cluster_AppModule_imports</title>
<polygon fill="none" stroke="black" points="1466,-40.8 1466,-233.8 1706,-233.8 1706,-40.8 1466,-40.8"/>
</g>
<g id="clust7" class="cluster">
<title>cluster_CommandsModule</title>
<polygon fill="none" stroke="black" stroke-dasharray="1,5" points="2782,-97.8 2782,-165.8 3540,-165.8 3540,-97.8 2782,-97.8"/>
</g>
<g id="clust12" class="cluster">
<title>cluster_CommandsModule_providers</title>
<polygon fill="none" stroke="black" points="2790,-105.8 2790,-157.8 3532,-157.8 3532,-105.8 2790,-105.8"/>
</g>
<g id="clust13" class="cluster">
<title>cluster_ModelsModule</title>
<polygon fill="none" stroke="black" stroke-dasharray="1,5" points="1722,-97.8 1722,-165.8 2564,-165.8 2564,-97.8 1722,-97.8"/>
</g>
<g id="clust16" class="cluster">
<title>cluster_ModelsModule_exports</title>
<polygon fill="none" stroke="black" points="2198,-105.8 2198,-157.8 2556,-157.8 2556,-105.8 2198,-105.8"/>
</g>
<g id="clust18" class="cluster">
<title>cluster_ModelsModule_providers</title>
<polygon fill="none" stroke="black" points="1730,-105.8 1730,-157.8 2190,-157.8 2190,-105.8 1730,-105.8"/>
</g>
<g id="clust19" class="cluster">
<title>cluster_ServicesModule</title>
<polygon fill="none" stroke="black" stroke-dasharray="1,5" points="8,-173.8 8,-241.8 1450,-241.8 1450,-173.8 8,-173.8"/>
</g>
<g id="clust22" class="cluster">
<title>cluster_ServicesModule_exports</title>
<polygon fill="none" stroke="black" points="822,-181.8 822,-233.8 1442,-233.8 1442,-181.8 822,-181.8"/>
</g>
<g id="clust24" class="cluster">
<title>cluster_ServicesModule_providers</title>
<polygon fill="none" stroke="black" points="16,-181.8 16,-233.8 814,-233.8 814,-181.8 16,-181.8"/>
</g>
<g id="clust25" class="cluster">
<title>cluster_UtilitiesModule</title>
<polygon fill="none" stroke="black" stroke-dasharray="1,5" points="2572,-97.8 2572,-165.8 2774,-165.8 2774,-97.8 2572,-97.8"/>
</g>
<g id="clust28" class="cluster">
<title>cluster_UtilitiesModule_exports</title>
<polygon fill="none" stroke="black" points="2686,-105.8 2686,-157.8 2766,-157.8 2766,-105.8 2686,-105.8"/>
</g>
<g id="clust30" class="cluster">
<title>cluster_UtilitiesModule_providers</title>
<polygon fill="none" stroke="black" points="2580,-105.8 2580,-157.8 2678,-157.8 2678,-105.8 2580,-105.8"/>
</g>
<!-- CommandsModule -->
<g id="node1" class="node">
<title>CommandsModule</title>
<polygon fill="#8dd3c7" stroke="black" points="1665.83,-225.8 1662.83,-229.8 1641.83,-229.8 1638.83,-225.8 1542.17,-225.8 1542.17,-189.8 1665.83,-189.8 1665.83,-225.8"/>
<text text-anchor="middle" x="1604" y="-203.6" font-family="Times,serif" font-size="14.00">CommandsModule</text>
</g>
<!-- AppModule -->
<g id="node5" class="node">
<title>AppModule</title>
<polygon fill="#8dd3c7" stroke="black" points="1675.66,-290.8 1672.66,-294.8 1651.66,-294.8 1648.66,-290.8 1592.34,-290.8 1592.34,-254.8 1675.66,-254.8 1675.66,-290.8"/>
<text text-anchor="middle" x="1634" y="-268.6" font-family="Times,serif" font-size="14.00">AppModule</text>
</g>
<!-- CommandsModule&#45;&gt;AppModule -->
<g id="edge1" class="edge">
<title>CommandsModule&#45;&gt;AppModule</title>
<path fill="none" stroke="black" d="M1628.92,-225.91C1628.92,-225.91 1628.92,-244.79 1628.92,-244.79"/>
<polygon fill="black" stroke="black" points="1625.42,-244.79 1628.92,-254.79 1632.42,-244.79 1625.42,-244.79"/>
</g>
<!-- ModelsModule -->
<g id="node2" class="node">
<title>ModelsModule</title>
<polygon fill="#8dd3c7" stroke="black" points="1575.55,-84.8 1572.55,-88.8 1551.55,-88.8 1548.55,-84.8 1474.45,-84.8 1474.45,-48.8 1575.55,-48.8 1575.55,-84.8"/>
<text text-anchor="middle" x="1525" y="-62.6" font-family="Times,serif" font-size="14.00">ModelsModule</text>
</g>
<!-- ServicesModule -->
<g id="node3" class="node">
<title>ServicesModule</title>
<polygon fill="#8dd3c7" stroke="black" points="1580.48,-149.8 1577.48,-153.8 1556.48,-153.8 1553.48,-149.8 1473.52,-149.8 1473.52,-113.8 1580.48,-113.8 1580.48,-149.8"/>
<text text-anchor="middle" x="1527" y="-127.6" font-family="Times,serif" font-size="14.00">ServicesModule</text>
</g>
<!-- ModelsModule&#45;&gt;ServicesModule -->
<g id="edge16" class="edge">
<title>ModelsModule&#45;&gt;ServicesModule</title>
<path fill="none" stroke="black" d="M1486.92,-84.91C1486.92,-84.91 1486.92,-103.79 1486.92,-103.79"/>
<polygon fill="black" stroke="black" points="1483.42,-103.79 1486.92,-113.79 1490.42,-103.79 1483.42,-103.79"/>
</g>
<!-- ModelsModule&#45;&gt;AppModule -->
<g id="edge2" class="edge">
<title>ModelsModule&#45;&gt;AppModule</title>
<path fill="none" stroke="black" d="M1525,-85.29C1525,-96.94 1525,-109.8 1525,-109.8 1525,-109.8 1669.05,-109.8 1669.05,-109.8 1669.05,-109.8 1669.05,-244.73 1669.05,-244.73"/>
<polygon fill="black" stroke="black" points="1665.55,-244.73 1669.05,-254.73 1672.55,-244.73 1665.55,-244.73"/>
</g>
<!-- AiArtModel  -->
<g id="node10" class="node">
<title>AiArtModel </title>
<polygon fill="#fb8072" stroke="black" points="2548.21,-149.8 2459.79,-149.8 2459.79,-113.8 2548.21,-113.8 2548.21,-149.8"/>
<text text-anchor="middle" x="2504" y="-127.6" font-family="Times,serif" font-size="14.00">AiArtModel </text>
</g>
<!-- ModelsModule&#45;&gt;AiArtModel  -->
<g id="edge10" class="edge">
<title>ModelsModule&#45;&gt;AiArtModel </title>
<path fill="none" stroke="black" stroke-dasharray="5,2" d="M1563.08,-84.92C1563.08,-87.77 1563.08,-89.8 1563.08,-89.8 1563.08,-89.8 2504,-89.8 2504,-89.8 2504,-89.8 2504,-103.74 2504,-103.74"/>
<polygon fill="black" stroke="black" points="2500.5,-103.74 2504,-113.74 2507.5,-103.74 2500.5,-103.74"/>
</g>
<!-- AiStoryModel  -->
<g id="node11" class="node">
<title>AiStoryModel </title>
<polygon fill="#fb8072" stroke="black" points="2441.39,-149.8 2340.61,-149.8 2340.61,-113.8 2441.39,-113.8 2441.39,-149.8"/>
<text text-anchor="middle" x="2391" y="-127.6" font-family="Times,serif" font-size="14.00">AiStoryModel </text>
</g>
<!-- ModelsModule&#45;&gt;AiStoryModel  -->
<g id="edge11" class="edge">
<title>ModelsModule&#45;&gt;AiStoryModel </title>
<path fill="none" stroke="black" stroke-dasharray="5,2" d="M1550.39,-84.96C1550.39,-89.84 1550.39,-93.8 1550.39,-93.8 1550.39,-93.8 2391,-93.8 2391,-93.8 2391,-93.8 2391,-103.69 2391,-103.69"/>
<polygon fill="black" stroke="black" points="2387.5,-103.69 2391,-113.69 2394.5,-103.69 2387.5,-103.69"/>
</g>
<!-- CogView2Model  -->
<g id="node12" class="node">
<title>CogView2Model </title>
<polygon fill="#fb8072" stroke="black" points="2322.21,-149.8 2205.79,-149.8 2205.79,-113.8 2322.21,-113.8 2322.21,-149.8"/>
<text text-anchor="middle" x="2264" y="-127.6" font-family="Times,serif" font-size="14.00">CogView2Model </text>
</g>
<!-- ModelsModule&#45;&gt;CogView2Model  -->
<g id="edge12" class="edge">
<title>ModelsModule&#45;&gt;CogView2Model </title>
<path fill="none" stroke="black" stroke-dasharray="5,2" d="M1537.69,-84.83C1537.69,-91.65 1537.69,-97.8 1537.69,-97.8 1537.69,-97.8 2264,-97.8 2264,-97.8 2264,-97.8 2264,-103.61 2264,-103.61"/>
<polygon fill="black" stroke="black" points="2260.5,-103.61 2264,-113.61 2267.5,-103.61 2260.5,-103.61"/>
</g>
<!-- ServicesModule&#45;&gt;CommandsModule -->
<g id="edge5" class="edge">
<title>ServicesModule&#45;&gt;CommandsModule</title>
<path fill="none" stroke="black" d="M1561.41,-149.81C1561.41,-149.81 1561.41,-179.65 1561.41,-179.65"/>
<polygon fill="black" stroke="black" points="1557.91,-179.65 1561.41,-189.65 1564.91,-179.65 1557.91,-179.65"/>
</g>
<!-- ServicesModule&#45;&gt;AppModule -->
<g id="edge3" class="edge">
<title>ServicesModule&#45;&gt;AppModule</title>
<path fill="none" stroke="black" d="M1519.39,-149.94C1519.39,-188.03 1519.39,-272.8 1519.39,-272.8 1519.39,-272.8 1582.3,-272.8 1582.3,-272.8"/>
<polygon fill="black" stroke="black" points="1582.3,-276.3 1592.3,-272.8 1582.3,-269.3 1582.3,-276.3"/>
</g>
<!-- AiStoryService  -->
<g id="node16" class="node">
<title>AiStoryService </title>
<polygon fill="#fb8072" stroke="black" points="1189.82,-225.8 1084.18,-225.8 1084.18,-189.8 1189.82,-189.8 1189.82,-225.8"/>
<text text-anchor="middle" x="1137" y="-203.6" font-family="Times,serif" font-size="14.00">AiStoryService </text>
</g>
<!-- ServicesModule&#45;&gt;AiStoryService  -->
<g id="edge18" class="edge">
<title>ServicesModule&#45;&gt;AiStoryService </title>
<path fill="none" stroke="black" stroke-dasharray="5,2" d="M1473.18,-142.8C1366.19,-142.8 1137,-142.8 1137,-142.8 1137,-142.8 1137,-179.69 1137,-179.69"/>
<polygon fill="black" stroke="black" points="1133.5,-179.69 1137,-189.69 1140.5,-179.69 1133.5,-179.69"/>
</g>
<!-- AmqpService  -->
<g id="node17" class="node">
<title>AmqpService </title>
<polygon fill="#fb8072" stroke="black" points="1066.48,-225.8 969.52,-225.8 969.52,-189.8 1066.48,-189.8 1066.48,-225.8"/>
<text text-anchor="middle" x="1018" y="-203.6" font-family="Times,serif" font-size="14.00">AmqpService </text>
</g>
<!-- ServicesModule&#45;&gt;AmqpService  -->
<g id="edge19" class="edge">
<title>ServicesModule&#45;&gt;AmqpService </title>
<path fill="none" stroke="black" stroke-dasharray="5,2" d="M1473.49,-139.8C1342.81,-139.8 1018,-139.8 1018,-139.8 1018,-139.8 1018,-179.58 1018,-179.58"/>
<polygon fill="black" stroke="black" points="1014.5,-179.58 1018,-189.58 1021.5,-179.58 1014.5,-179.58"/>
</g>
<!-- CogView2Service  -->
<g id="node18" class="node">
<title>CogView2Service </title>
<polygon fill="#fb8072" stroke="black" points="952.14,-225.8 829.86,-225.8 829.86,-189.8 952.14,-189.8 952.14,-225.8"/>
<text text-anchor="middle" x="891" y="-203.6" font-family="Times,serif" font-size="14.00">CogView2Service </text>
</g>
<!-- ServicesModule&#45;&gt;CogView2Service  -->
<g id="edge20" class="edge">
<title>ServicesModule&#45;&gt;CogView2Service </title>
<path fill="none" stroke="black" stroke-dasharray="5,2" d="M1473.32,-135.8C1319.99,-135.8 891,-135.8 891,-135.8 891,-135.8 891,-179.63 891,-179.63"/>
<polygon fill="black" stroke="black" points="887.5,-179.63 891,-189.63 894.5,-179.63 887.5,-179.63"/>
</g>
<!-- DalleMiniService  -->
<g id="node19" class="node">
<title>DalleMiniService </title>
<polygon fill="#fb8072" stroke="black" points="1433.52,-225.8 1314.48,-225.8 1314.48,-189.8 1433.52,-189.8 1433.52,-225.8"/>
<text text-anchor="middle" x="1374" y="-203.6" font-family="Times,serif" font-size="14.00">DalleMiniService </text>
</g>
<!-- ServicesModule&#45;&gt;DalleMiniService  -->
<g id="edge21" class="edge">
<title>ServicesModule&#45;&gt;DalleMiniService </title>
<path fill="none" stroke="black" stroke-dasharray="5,2" d="M1496.45,-149.81C1496.45,-172.29 1496.45,-207.8 1496.45,-207.8 1496.45,-207.8 1443.79,-207.8 1443.79,-207.8"/>
<polygon fill="black" stroke="black" points="1443.79,-204.3 1433.79,-207.8 1443.79,-211.3 1443.79,-204.3"/>
</g>
<!-- HelpService  -->
<g id="node20" class="node">
<title>HelpService </title>
<polygon fill="#fb8072" stroke="black" points="1296.19,-225.8 1207.81,-225.8 1207.81,-189.8 1296.19,-189.8 1296.19,-225.8"/>
<text text-anchor="middle" x="1252" y="-203.6" font-family="Times,serif" font-size="14.00">HelpService </text>
</g>
<!-- ServicesModule&#45;&gt;HelpService  -->
<g id="edge22" class="edge">
<title>ServicesModule&#45;&gt;HelpService </title>
<path fill="none" stroke="black" stroke-dasharray="5,2" d="M1473.32,-146.8C1393.29,-146.8 1252,-146.8 1252,-146.8 1252,-146.8 1252,-179.5 1252,-179.5"/>
<polygon fill="black" stroke="black" points="1248.5,-179.5 1252,-189.5 1255.5,-179.5 1248.5,-179.5"/>
</g>
<!-- UtilitiesModule -->
<g id="node4" class="node">
<title>UtilitiesModule</title>
<polygon fill="#8dd3c7" stroke="black" points="1698.16,-84.8 1695.16,-88.8 1674.16,-88.8 1671.16,-84.8 1593.84,-84.8 1593.84,-48.8 1698.16,-48.8 1698.16,-84.8"/>
<text text-anchor="middle" x="1646" y="-62.6" font-family="Times,serif" font-size="14.00">UtilitiesModule</text>
</g>
<!-- UtilitiesModule&#45;&gt;ServicesModule -->
<g id="edge17" class="edge">
<title>UtilitiesModule&#45;&gt;ServicesModule</title>
<path fill="none" stroke="black" d="M1629.67,-85.08C1629.67,-106.12 1629.67,-137.8 1629.67,-137.8 1629.67,-137.8 1590.74,-137.8 1590.74,-137.8"/>
<polygon fill="black" stroke="black" points="1590.74,-134.3 1580.74,-137.8 1590.74,-141.3 1590.74,-134.3"/>
</g>
<!-- UtilitiesModule&#45;&gt;AppModule -->
<g id="edge4" class="edge">
<title>UtilitiesModule&#45;&gt;AppModule</title>
<path fill="none" stroke="black" d="M1672.44,-85.08C1672.44,-85.08 1672.44,-244.56 1672.44,-244.56"/>
<polygon fill="black" stroke="black" points="1668.94,-244.56 1672.44,-254.56 1675.94,-244.56 1668.94,-244.56"/>
</g>
<!-- Collage  -->
<g id="node26" class="node">
<title>Collage </title>
<polygon fill="#fb8072" stroke="black" points="2757.54,-149.8 2694.46,-149.8 2694.46,-113.8 2757.54,-113.8 2757.54,-149.8"/>
<text text-anchor="middle" x="2726" y="-127.6" font-family="Times,serif" font-size="14.00">Collage </text>
</g>
<!-- UtilitiesModule&#45;&gt;Collage  -->
<g id="edge28" class="edge">
<title>UtilitiesModule&#45;&gt;Collage </title>
<path fill="none" stroke="black" stroke-dasharray="5,2" d="M1698.46,-60.8C1914.74,-60.8 2726,-60.8 2726,-60.8 2726,-60.8 2726,-103.52 2726,-103.52"/>
<polygon fill="black" stroke="black" points="2722.5,-103.52 2726,-113.52 2729.5,-103.52 2722.5,-103.52"/>
</g>
<!-- CogView2Command -->
<g id="node6" class="node">
<title>CogView2Command</title>
<ellipse fill="#fdb462" stroke="black" cx="3249" cy="-131.8" rx="93.23" ry="18"/>
<text text-anchor="middle" x="3249" y="-127.6" font-family="Times,serif" font-size="14.00">CogView2Command</text>
</g>
<!-- CogView2Command&#45;&gt;CommandsModule -->
<g id="edge6" class="edge">
<title>CogView2Command&#45;&gt;CommandsModule</title>
<path fill="none" stroke="black" d="M3249,-149.95C3249,-173.56 3249,-211.8 3249,-211.8 3249,-211.8 1675.98,-211.8 1675.98,-211.8"/>
<polygon fill="black" stroke="black" points="1675.98,-208.3 1665.98,-211.8 1675.98,-215.3 1675.98,-208.3"/>
</g>
<!-- DalleMiniCommand -->
<g id="node7" class="node">
<title>DalleMiniCommand</title>
<ellipse fill="#fdb462" stroke="black" cx="3047" cy="-131.8" rx="90.93" ry="18"/>
<text text-anchor="middle" x="3047" y="-127.6" font-family="Times,serif" font-size="14.00">DalleMiniCommand</text>
</g>
<!-- DalleMiniCommand&#45;&gt;CommandsModule -->
<g id="edge7" class="edge">
<title>DalleMiniCommand&#45;&gt;CommandsModule</title>
<path fill="none" stroke="black" d="M3047,-149.84C3047,-171.46 3047,-204.8 3047,-204.8 3047,-204.8 1676,-204.8 1676,-204.8"/>
<polygon fill="black" stroke="black" points="1676,-201.3 1666,-204.8 1676,-208.3 1676,-201.3"/>
</g>
<!-- HelpCommand -->
<g id="node8" class="node">
<title>HelpCommand</title>
<ellipse fill="#fdb462" stroke="black" cx="2868" cy="-131.8" rx="70.09" ry="18"/>
<text text-anchor="middle" x="2868" y="-127.6" font-family="Times,serif" font-size="14.00">HelpCommand</text>
</g>
<!-- HelpCommand&#45;&gt;CommandsModule -->
<g id="edge8" class="edge">
<title>HelpCommand&#45;&gt;CommandsModule</title>
<path fill="none" stroke="black" d="M2868,-149.83C2868,-169.38 2868,-197.8 2868,-197.8 2868,-197.8 1675.82,-197.8 1675.82,-197.8"/>
<polygon fill="black" stroke="black" points="1675.82,-194.3 1665.82,-197.8 1675.82,-201.3 1675.82,-194.3"/>
</g>
<!-- OpenAiCommand -->
<g id="node9" class="node">
<title>OpenAiCommand</title>
<ellipse fill="#fdb462" stroke="black" cx="3442" cy="-131.8" rx="81.69" ry="18"/>
<text text-anchor="middle" x="3442" y="-127.6" font-family="Times,serif" font-size="14.00">OpenAiCommand</text>
</g>
<!-- OpenAiCommand&#45;&gt;CommandsModule -->
<g id="edge9" class="edge">
<title>OpenAiCommand&#45;&gt;CommandsModule</title>
<path fill="none" stroke="black" d="M3442,-149.83C3442,-175.31 3442,-218.8 3442,-218.8 3442,-218.8 1675.68,-218.8 1675.68,-218.8"/>
<polygon fill="black" stroke="black" points="1675.68,-215.3 1665.68,-218.8 1675.68,-222.3 1675.68,-215.3"/>
</g>
<!-- AiArtModel -->
<g id="node13" class="node">
<title>AiArtModel</title>
<ellipse fill="#fdb462" stroke="black" cx="2123" cy="-131.8" rx="58.56" ry="18"/>
<text text-anchor="middle" x="2123" y="-127.6" font-family="Times,serif" font-size="14.00">AiArtModel</text>
</g>
<!-- AiArtModel&#45;&gt;ModelsModule -->
<g id="edge13" class="edge">
<title>AiArtModel&#45;&gt;ModelsModule</title>
<path fill="none" stroke="black" d="M2123,-113.66C2123,-107.34 2123,-101.8 2123,-101.8 2123,-101.8 1512.31,-101.8 1512.31,-101.8 1512.31,-101.8 1512.31,-95.12 1512.31,-95.12"/>
<polygon fill="black" stroke="black" points="1515.81,-95.12 1512.31,-85.12 1508.81,-95.12 1515.81,-95.12"/>
</g>
<!-- AiStoryModel -->
<g id="node14" class="node">
<title>AiStoryModel</title>
<ellipse fill="#fdb462" stroke="black" cx="1979" cy="-131.8" rx="66.67" ry="18"/>
<text text-anchor="middle" x="1979" y="-127.6" font-family="Times,serif" font-size="14.00">AiStoryModel</text>
</g>
<!-- AiStoryModel&#45;&gt;ModelsModule -->
<g id="edge14" class="edge">
<title>AiStoryModel&#45;&gt;ModelsModule</title>
<path fill="none" stroke="black" d="M1979,-113.74C1979,-109.31 1979,-105.8 1979,-105.8 1979,-105.8 1499.61,-105.8 1499.61,-105.8 1499.61,-105.8 1499.61,-94.93 1499.61,-94.93"/>
<polygon fill="black" stroke="black" points="1503.11,-94.93 1499.61,-84.93 1496.11,-94.93 1503.11,-94.93"/>
</g>
<!-- CogView2Model -->
<g id="node15" class="node">
<title>CogView2Model</title>
<ellipse fill="#fdb462" stroke="black" cx="1816" cy="-131.8" rx="78.19" ry="18"/>
<text text-anchor="middle" x="1816" y="-127.6" font-family="Times,serif" font-size="14.00">CogView2Model</text>
</g>
<!-- CogView2Model&#45;&gt;ModelsModule -->
<g id="edge15" class="edge">
<title>CogView2Model&#45;&gt;ModelsModule</title>
<path fill="none" stroke="black" d="M1742.31,-125.8C1675.39,-125.8 1587.08,-125.8 1587.08,-125.8 1587.08,-125.8 1587.08,-66.8 1587.08,-66.8 1587.08,-66.8 1585.69,-66.8 1585.69,-66.8"/>
<polygon fill="black" stroke="black" points="1585.69,-63.3 1575.69,-66.8 1585.69,-70.3 1585.69,-63.3"/>
</g>
<!-- AiStoryService -->
<g id="node21" class="node">
<title>AiStoryService</title>
<ellipse fill="#fdb462" stroke="black" cx="423" cy="-207.8" rx="70.65" ry="18"/>
<text text-anchor="middle" x="423" y="-203.6" font-family="Times,serif" font-size="14.00">AiStoryService</text>
</g>
<!-- AiStoryService&#45;&gt;ServicesModule -->
<g id="edge23" class="edge">
<title>AiStoryService&#45;&gt;ServicesModule</title>
<path fill="none" stroke="black" d="M423,-189.79C423,-165.38 423,-124.8 423,-124.8 423,-124.8 1463.38,-124.8 1463.38,-124.8"/>
<polygon fill="black" stroke="black" points="1463.38,-128.3 1473.38,-124.8 1463.38,-121.3 1463.38,-128.3"/>
</g>
<!-- AmqpService -->
<g id="node22" class="node">
<title>AmqpService</title>
<ellipse fill="#fdb462" stroke="black" cx="270" cy="-207.8" rx="64.27" ry="18"/>
<text text-anchor="middle" x="270" y="-203.6" font-family="Times,serif" font-size="14.00">AmqpService</text>
</g>
<!-- AmqpService&#45;&gt;ServicesModule -->
<g id="edge24" class="edge">
<title>AmqpService&#45;&gt;ServicesModule</title>
<path fill="none" stroke="black" d="M270,-189.56C270,-164.32 270,-121.8 270,-121.8 270,-121.8 1463.39,-121.8 1463.39,-121.8"/>
<polygon fill="black" stroke="black" points="1463.39,-125.3 1473.39,-121.8 1463.39,-118.3 1463.39,-125.3"/>
</g>
<!-- CogView2Service -->
<g id="node23" class="node">
<title>CogView2Service</title>
<ellipse fill="#fdb462" stroke="black" cx="106" cy="-207.8" rx="81.67" ry="18"/>
<text text-anchor="middle" x="106" y="-203.6" font-family="Times,serif" font-size="14.00">CogView2Service</text>
</g>
<!-- CogView2Service&#45;&gt;ServicesModule -->
<g id="edge25" class="edge">
<title>CogView2Service&#45;&gt;ServicesModule</title>
<path fill="none" stroke="black" d="M106,-189.59C106,-163.29 106,-117.8 106,-117.8 106,-117.8 1463.46,-117.8 1463.46,-117.8"/>
<polygon fill="black" stroke="black" points="1463.46,-121.3 1473.46,-117.8 1463.46,-114.3 1463.46,-121.3"/>
</g>
<!-- DalleMiniService -->
<g id="node24" class="node">
<title>DalleMiniService</title>
<ellipse fill="#fdb462" stroke="black" cx="726" cy="-207.8" rx="79.87" ry="18"/>
<text text-anchor="middle" x="726" y="-203.6" font-family="Times,serif" font-size="14.00">DalleMiniService</text>
</g>
<!-- DalleMiniService&#45;&gt;ServicesModule -->
<g id="edge26" class="edge">
<title>DalleMiniService&#45;&gt;ServicesModule</title>
<path fill="none" stroke="black" d="M726,-189.79C726,-167.31 726,-131.8 726,-131.8 726,-131.8 1463.51,-131.8 1463.51,-131.8"/>
<polygon fill="black" stroke="black" points="1463.51,-135.3 1473.51,-131.8 1463.51,-128.3 1463.51,-135.3"/>
</g>
<!-- HelpService -->
<g id="node25" class="node">
<title>HelpService</title>
<ellipse fill="#fdb462" stroke="black" cx="570" cy="-207.8" rx="58.53" ry="18"/>
<text text-anchor="middle" x="570" y="-203.6" font-family="Times,serif" font-size="14.00">HelpService</text>
</g>
<!-- HelpService&#45;&gt;ServicesModule -->
<g id="edge27" class="edge">
<title>HelpService&#45;&gt;ServicesModule</title>
<path fill="none" stroke="black" d="M570,-189.48C570,-166.14 570,-128.8 570,-128.8 570,-128.8 1463.5,-128.8 1463.5,-128.8"/>
<polygon fill="black" stroke="black" points="1463.5,-132.3 1473.5,-128.8 1463.5,-125.3 1463.5,-132.3"/>
</g>
<!-- Collage -->
<g id="node27" class="node">
<title>Collage</title>
<ellipse fill="#fdb462" stroke="black" cx="2629" cy="-131.8" rx="41.15" ry="18"/>
<text text-anchor="middle" x="2629" y="-127.6" font-family="Times,serif" font-size="14.00">Collage</text>
</g>
<!-- Collage&#45;&gt;UtilitiesModule -->
<g id="edge29" class="edge">
<title>Collage&#45;&gt;UtilitiesModule</title>
<path fill="none" stroke="black" d="M2629,-113.78C2629,-96.43 2629,-72.8 2629,-72.8 2629,-72.8 1708.5,-72.8 1708.5,-72.8"/>
<polygon fill="black" stroke="black" points="1708.5,-69.3 1698.5,-72.8 1708.5,-76.3 1708.5,-69.3"/>
</g>
</g>
</svg>
