<?xml version="1.0" encoding="UTF-8" standalone="no"?>
<!DOCTYPE svg PUBLIC "-//W3C//DTD SVG 1.1//EN"
 "http://www.w3.org/Graphics/SVG/1.1/DTD/svg11.dtd">
<!-- Generated by graphviz version 2.47.0 (20210316.0004)
 -->
<!-- Title: dependencies Pages: 1 -->
<svg width="504pt" height="284pt"
 viewBox="0.00 0.00 504.00 284.00" xmlns="http://www.w3.org/2000/svg" xmlns:xlink="http://www.w3.org/1999/xlink">
<g id="graph0" class="graph" transform="scale(1 1) rotate(0) translate(4 280)">
<title>dependencies</title>
<polygon fill="white" stroke="transparent" points="-4,4 -4,-280 500,-280 500,4 -4,4"/>
<text text-anchor="start" x="227.01" y="-42.4" font-family="Times-12" font-weight="bold" font-size="14.00">Legend</text>
<polygon fill="#ffffb3" stroke="transparent" points="14,-10 14,-30 34,-30 34,-10 14,-10"/>
<text text-anchor="start" x="37.63" y="-15.4" font-family="Times-12" font-size="14.00"> &#160;Declarations</text>
<polygon fill="#8dd3c7" stroke="transparent" points="127,-10 127,-30 147,-30 147,-10 127,-10"/>
<text text-anchor="start" x="150.73" y="-15.4" font-family="Times-12" font-size="14.00"> &#160;Module</text>
<polygon fill="#80b1d3" stroke="transparent" points="213,-10 213,-30 233,-30 233,-10 213,-10"/>
<text text-anchor="start" x="236.78" y="-15.4" font-family="Times-12" font-size="14.00"> &#160;Bootstrap</text>
<polygon fill="#fdb462" stroke="transparent" points="310,-10 310,-30 330,-30 330,-10 310,-10"/>
<text text-anchor="start" x="333.67" y="-15.4" font-family="Times-12" font-size="14.00"> &#160;Providers</text>
<polygon fill="#fb8072" stroke="transparent" points="406,-10 406,-30 426,-30 426,-10 406,-10"/>
<text text-anchor="start" x="429.73" y="-15.4" font-family="Times-12" font-size="14.00"> &#160;Exports</text>
<g id="clust1" class="cluster">
<title>cluster_GatewayModule</title>
<polygon fill="none" stroke="black" stroke-dasharray="1,5" points="114,-70 114,-268 382,-268 382,-70 114,-70"/>
</g>
<g id="clust6" class="cluster">
<title>cluster_GatewayModule_providers</title>
<polygon fill="none" stroke="black" points="240,-78 240,-130 374,-130 374,-78 240,-78"/>
</g>
<g id="clust3" class="cluster">
<title>cluster_GatewayModule_imports</title>
<polygon fill="none" stroke="black" points="122,-78 122,-130 232,-130 232,-78 122,-78"/>
</g>
<g id="clust4" class="cluster">
<title>cluster_GatewayModule_exports</title>
<polygon fill="none" stroke="black" points="189,-208 189,-260 295,-260 295,-208 189,-208"/>
</g>
<!-- EntityModule -->
<g id="node1" class="node">
<title>EntityModule</title>
<polygon fill="#8dd3c7" stroke="black" points="223.77,-122 220.77,-126 199.77,-126 196.77,-122 130.23,-122 130.23,-86 223.77,-86 223.77,-122"/>
<text text-anchor="middle" x="177" y="-99.8" font-family="Times,serif" font-size="14.00">EntityModule</text>
</g>
<!-- GatewayModule -->
<g id="node2" class="node">
<title>GatewayModule</title>
<polygon fill="#8dd3c7" stroke="black" points="296.8,-187 293.8,-191 272.8,-191 269.8,-187 187.2,-187 187.2,-151 296.8,-151 296.8,-187"/>
<text text-anchor="middle" x="242" y="-164.8" font-family="Times,serif" font-size="14.00">GatewayModule</text>
</g>
<!-- EntityModule&#45;&gt;GatewayModule -->
<g id="edge1" class="edge">
<title>EntityModule&#45;&gt;GatewayModule</title>
<path fill="none" stroke="black" d="M205.62,-122.11C205.62,-122.11 205.62,-140.99 205.62,-140.99"/>
<polygon fill="black" stroke="black" points="202.12,-140.99 205.62,-150.99 209.12,-140.99 202.12,-140.99"/>
</g>
<!-- BotGateway  -->
<g id="node3" class="node">
<title>BotGateway </title>
<polygon fill="#fb8072" stroke="black" points="286.98,-252 197.02,-252 197.02,-216 286.98,-216 286.98,-252"/>
<text text-anchor="middle" x="242" y="-229.8" font-family="Times,serif" font-size="14.00">BotGateway </text>
</g>
<!-- GatewayModule&#45;&gt;BotGateway  -->
<g id="edge2" class="edge">
<title>GatewayModule&#45;&gt;BotGateway </title>
<path fill="none" stroke="black" stroke-dasharray="5,2" d="M242,-187.11C242,-187.11 242,-205.99 242,-205.99"/>
<polygon fill="black" stroke="black" points="238.5,-205.99 242,-215.99 245.5,-205.99 238.5,-205.99"/>
</g>
<!-- BotGateway -->
<g id="node4" class="node">
<title>BotGateway</title>
<ellipse fill="#fdb462" stroke="black" cx="307" cy="-104" rx="59.11" ry="18"/>
<text text-anchor="middle" x="307" y="-99.8" font-family="Times,serif" font-size="14.00">BotGateway</text>
</g>
<!-- BotGateway&#45;&gt;GatewayModule -->
<g id="edge3" class="edge">
<title>BotGateway&#45;&gt;GatewayModule</title>
<path fill="none" stroke="black" d="M272.17,-118.75C272.17,-118.75 272.17,-140.59 272.17,-140.59"/>
<polygon fill="black" stroke="black" points="268.67,-140.59 272.17,-150.59 275.67,-140.59 268.67,-140.59"/>
</g>
</g>
</svg>
