<?xml version="1.0" encoding="UTF-8" standalone="no"?>
<!DOCTYPE svg PUBLIC "-//W3C//DTD SVG 1.1//EN"
 "http://www.w3.org/Graphics/SVG/1.1/DTD/svg11.dtd">
<!-- Generated by graphviz version 5.0.0 (20220707.1540)
 -->
<!-- Title: dependencies Pages: 1 -->
<svg width="912pt" height="174pt"
 viewBox="0.00 0.00 912.00 173.80" xmlns="http://www.w3.org/2000/svg" xmlns:xlink="http://www.w3.org/1999/xlink">
<g id="graph0" class="graph" transform="scale(1 1) rotate(0) translate(4 169.8)">
<title>dependencies</title>
<polygon fill="white" stroke="transparent" points="-4,4 -4,-169.8 908,-169.8 908,4 -4,4"/>
<text text-anchor="middle" x="452" y="-8.2" font-family="sans-serif" font-size="14.00">dependencies</text>
<g id="clust1" class="cluster">
<title>cluster_CommandsModule</title>
<polygon fill="none" stroke="black" stroke-dasharray="1,5" points="8,-32.8 8,-157.8 896,-157.8 896,-32.8 8,-32.8"/>
</g>
<g id="clust6" class="cluster">
<title>cluster_CommandsModule_providers</title>
<polygon fill="none" stroke="black" points="146,-40.8 146,-92.8 888,-92.8 888,-40.8 146,-40.8"/>
</g>
<g id="clust3" class="cluster">
<title>cluster_CommandsModule_imports</title>
<polygon fill="none" stroke="black" points="16,-40.8 16,-92.8 138,-92.8 138,-40.8 16,-40.8"/>
</g>
<!-- ServicesModule -->
<g id="node1" class="node">
<title>ServicesModule</title>
<polygon fill="#8dd3c7" stroke="black" points="130.48,-84.8 127.48,-88.8 106.48,-88.8 103.48,-84.8 23.52,-84.8 23.52,-48.8 130.48,-48.8 130.48,-84.8"/>
<text text-anchor="middle" x="77" y="-62.6" font-family="Times,serif" font-size="14.00">ServicesModule</text>
</g>
<!-- CommandsModule -->
<g id="node2" class="node">
<title>CommandsModule</title>
<polygon fill="#8dd3c7" stroke="black" points="467.83,-149.8 464.83,-153.8 443.83,-153.8 440.83,-149.8 344.17,-149.8 344.17,-113.8 467.83,-113.8 467.83,-149.8"/>
<text text-anchor="middle" x="406" y="-127.6" font-family="Times,serif" font-size="14.00">CommandsModule</text>
</g>
<!-- ServicesModule&#45;&gt;CommandsModule -->
<g id="edge1" class="edge">
<title>ServicesModule&#45;&gt;CommandsModule</title>
<path fill="none" stroke="black" d="M77,-85.08C77,-106.12 77,-137.8 77,-137.8 77,-137.8 334.12,-137.8 334.12,-137.8"/>
<polygon fill="black" stroke="black" points="334.12,-141.3 344.12,-137.8 334.12,-134.3 334.12,-141.3"/>
</g>
<!-- CogView2Command -->
<g id="node3" class="node">
<title>CogView2Command</title>
<ellipse fill="#fdb462" stroke="black" cx="787" cy="-66.8" rx="93.23" ry="18"/>
<text text-anchor="middle" x="787" y="-62.6" font-family="Times,serif" font-size="14.00">CogView2Command</text>
</g>
<!-- CogView2Command&#45;&gt;CommandsModule -->
<g id="edge2" class="edge">
<title>CogView2Command&#45;&gt;CommandsModule</title>
<path fill="none" stroke="black" d="M787,-85.08C787,-106.12 787,-137.8 787,-137.8 787,-137.8 478.06,-137.8 478.06,-137.8"/>
<polygon fill="black" stroke="black" points="478.06,-134.3 468.06,-137.8 478.06,-141.3 478.06,-134.3"/>
</g>
<!-- DalleMiniCommand -->
<g id="node4" class="node">
<title>DalleMiniCommand</title>
<ellipse fill="#fdb462" stroke="black" cx="585" cy="-66.8" rx="90.93" ry="18"/>
<text text-anchor="middle" x="585" y="-62.6" font-family="Times,serif" font-size="14.00">DalleMiniCommand</text>
</g>
<!-- DalleMiniCommand&#45;&gt;CommandsModule -->
<g id="edge3" class="edge">
<title>DalleMiniCommand&#45;&gt;CommandsModule</title>
<path fill="none" stroke="black" d="M585,-84.82C585,-102.17 585,-125.8 585,-125.8 585,-125.8 477.85,-125.8 477.85,-125.8"/>
<polygon fill="black" stroke="black" points="477.85,-122.3 467.85,-125.8 477.85,-129.3 477.85,-122.3"/>
</g>
<!-- HelpCommand -->
<g id="node5" class="node">
<title>HelpCommand</title>
<ellipse fill="#fdb462" stroke="black" cx="406" cy="-66.8" rx="70.09" ry="18"/>
<text text-anchor="middle" x="406" y="-62.6" font-family="Times,serif" font-size="14.00">HelpCommand</text>
</g>
<!-- HelpCommand&#45;&gt;CommandsModule -->
<g id="edge4" class="edge">
<title>HelpCommand&#45;&gt;CommandsModule</title>
<path fill="none" stroke="black" d="M406,-84.91C406,-84.91 406,-103.79 406,-103.79"/>
<polygon fill="black" stroke="black" points="402.5,-103.79 406,-113.79 409.5,-103.79 402.5,-103.79"/>
</g>
<!-- OpenAiCommand -->
<g id="node6" class="node">
<title>OpenAiCommand</title>
<ellipse fill="#fdb462" stroke="black" cx="236" cy="-66.8" rx="81.69" ry="18"/>
<text text-anchor="middle" x="236" y="-62.6" font-family="Times,serif" font-size="14.00">OpenAiCommand</text>
</g>
<!-- OpenAiCommand&#45;&gt;CommandsModule -->
<g id="edge5" class="edge">
<title>OpenAiCommand&#45;&gt;CommandsModule</title>
<path fill="none" stroke="black" d="M236,-84.82C236,-102.17 236,-125.8 236,-125.8 236,-125.8 334.15,-125.8 334.15,-125.8"/>
<polygon fill="black" stroke="black" points="334.15,-129.3 344.15,-125.8 334.15,-122.3 334.15,-129.3"/>
</g>
</g>
</svg>
