<?xml version="1.0" encoding="UTF-8" standalone="no"?>
<!DOCTYPE svg PUBLIC "-//W3C//DTD SVG 1.1//EN"
 "http://www.w3.org/Graphics/SVG/1.1/DTD/svg11.dtd">
<!-- Generated by graphviz version 5.0.0 (20220707.1540)
 -->
<!-- Title: dependencies Pages: 1 -->
<svg width="546pt" height="174pt"
 viewBox="0.00 0.00 546.00 173.80" xmlns="http://www.w3.org/2000/svg" xmlns:xlink="http://www.w3.org/1999/xlink">
<g id="graph0" class="graph" transform="scale(1 1) rotate(0) translate(4 169.8)">
<title>dependencies</title>
<polygon fill="white" stroke="transparent" points="-4,4 -4,-169.8 542,-169.8 542,4 -4,4"/>
<text text-anchor="middle" x="269" y="-8.2" font-family="sans-serif" font-size="14.00">dependencies</text>
<g id="clust1" class="cluster">
<title>cluster_AppModule</title>
<polygon fill="none" stroke="black" stroke-dasharray="1,5" points="8,-32.8 8,-157.8 530,-157.8 530,-32.8 8,-32.8"/>
</g>
<g id="clust3" class="cluster">
<title>cluster_AppModule_imports</title>
<polygon fill="none" stroke="black" points="16,-40.8 16,-92.8 522,-92.8 522,-40.8 16,-40.8"/>
</g>
<!-- CommandsModule -->
<g id="node1" class="node">
<title>CommandsModule</title>
<polygon fill="#8dd3c7" stroke="black" points="513.83,-84.8 510.83,-88.8 489.83,-88.8 486.83,-84.8 390.17,-84.8 390.17,-48.8 513.83,-48.8 513.83,-84.8"/>
<text text-anchor="middle" x="452" y="-62.6" font-family="Times,serif" font-size="14.00">CommandsModule</text>
</g>
<!-- AppModule -->
<g id="node5" class="node">
<title>AppModule</title>
<polygon fill="#8dd3c7" stroke="black" points="302.66,-149.8 299.66,-153.8 278.66,-153.8 275.66,-149.8 219.34,-149.8 219.34,-113.8 302.66,-113.8 302.66,-149.8"/>
<text text-anchor="middle" x="261" y="-127.6" font-family="Times,serif" font-size="14.00">AppModule</text>
</g>
<!-- CommandsModule&#45;&gt;AppModule -->
<g id="edge1" class="edge">
<title>CommandsModule&#45;&gt;AppModule</title>
<path fill="none" stroke="black" d="M452,-84.91C452,-104.14 452,-131.8 452,-131.8 452,-131.8 312.92,-131.8 312.92,-131.8"/>
<polygon fill="black" stroke="black" points="312.92,-128.3 302.92,-131.8 312.92,-135.3 312.92,-128.3"/>
</g>
<!-- ModelsModule -->
<g id="node2" class="node">
<title>ModelsModule</title>
<polygon fill="#8dd3c7" stroke="black" points="372.55,-84.8 369.55,-88.8 348.55,-88.8 345.55,-84.8 271.45,-84.8 271.45,-48.8 372.55,-48.8 372.55,-84.8"/>
<text text-anchor="middle" x="322" y="-62.6" font-family="Times,serif" font-size="14.00">ModelsModule</text>
</g>
<!-- ModelsModule&#45;&gt;AppModule -->
<g id="edge2" class="edge">
<title>ModelsModule&#45;&gt;AppModule</title>
<path fill="none" stroke="black" d="M287.03,-84.91C287.03,-84.91 287.03,-103.79 287.03,-103.79"/>
<polygon fill="black" stroke="black" points="283.53,-103.79 287.03,-113.79 290.53,-103.79 283.53,-103.79"/>
</g>
<!-- ServicesModule -->
<g id="node3" class="node">
<title>ServicesModule</title>
<polygon fill="#8dd3c7" stroke="black" points="253.48,-84.8 250.48,-88.8 229.48,-88.8 226.48,-84.8 146.52,-84.8 146.52,-48.8 253.48,-48.8 253.48,-84.8"/>
<text text-anchor="middle" x="200" y="-62.6" font-family="Times,serif" font-size="14.00">ServicesModule</text>
</g>
<!-- ServicesModule&#45;&gt;AppModule -->
<g id="edge3" class="edge">
<title>ServicesModule&#45;&gt;AppModule</title>
<path fill="none" stroke="black" d="M236.33,-84.91C236.33,-84.91 236.33,-103.79 236.33,-103.79"/>
<polygon fill="black" stroke="black" points="232.83,-103.79 236.33,-113.79 239.83,-103.79 232.83,-103.79"/>
</g>
<!-- UtilitiesModule -->
<g id="node4" class="node">
<title>UtilitiesModule</title>
<polygon fill="#8dd3c7" stroke="black" points="128.16,-84.8 125.16,-88.8 104.16,-88.8 101.16,-84.8 23.84,-84.8 23.84,-48.8 128.16,-48.8 128.16,-84.8"/>
<text text-anchor="middle" x="76" y="-62.6" font-family="Times,serif" font-size="14.00">UtilitiesModule</text>
</g>
<!-- UtilitiesModule&#45;&gt;AppModule -->
<g id="edge4" class="edge">
<title>UtilitiesModule&#45;&gt;AppModule</title>
<path fill="none" stroke="black" d="M76,-84.91C76,-104.14 76,-131.8 76,-131.8 76,-131.8 209.02,-131.8 209.02,-131.8"/>
<polygon fill="black" stroke="black" points="209.02,-135.3 219.02,-131.8 209.02,-128.3 209.02,-135.3"/>
</g>
</g>
</svg>
