<?xml version="1.0" encoding="UTF-8" standalone="no"?>
<!DOCTYPE svg PUBLIC "-//W3C//DTD SVG 1.1//EN"
 "http://www.w3.org/Graphics/SVG/1.1/DTD/svg11.dtd">
<!-- Generated by graphviz version 2.47.0 (20210316.0004)
 -->
<!-- Title: dependencies Pages: 1 -->
<svg width="504pt" height="284pt"
 viewBox="0.00 0.00 504.00 284.00" xmlns="http://www.w3.org/2000/svg" xmlns:xlink="http://www.w3.org/1999/xlink">
<g id="graph0" class="graph" transform="scale(1 1) rotate(0) translate(4 280)">
<title>dependencies</title>
<polygon fill="white" stroke="transparent" points="-4,4 -4,-280 500,-280 500,4 -4,4"/>
<text text-anchor="start" x="227.01" y="-42.4" font-family="Times-12" font-weight="bold" font-size="14.00">Legend</text>
<polygon fill="#ffffb3" stroke="transparent" points="14,-10 14,-30 34,-30 34,-10 14,-10"/>
<text text-anchor="start" x="37.63" y="-15.4" font-family="Times-12" font-size="14.00"> &#160;Declarations</text>
<polygon fill="#8dd3c7" stroke="transparent" points="127,-10 127,-30 147,-30 147,-10 127,-10"/>
<text text-anchor="start" x="150.73" y="-15.4" font-family="Times-12" font-size="14.00"> &#160;Module</text>
<polygon fill="#80b1d3" stroke="transparent" points="213,-10 213,-30 233,-30 233,-10 213,-10"/>
<text text-anchor="start" x="236.78" y="-15.4" font-family="Times-12" font-size="14.00"> &#160;Bootstrap</text>
<polygon fill="#fdb462" stroke="transparent" points="310,-10 310,-30 330,-30 330,-10 310,-10"/>
<text text-anchor="start" x="333.67" y="-15.4" font-family="Times-12" font-size="14.00"> &#160;Providers</text>
<polygon fill="#fb8072" stroke="transparent" points="406,-10 406,-30 426,-30 426,-10 406,-10"/>
<text text-anchor="start" x="429.73" y="-15.4" font-family="Times-12" font-size="14.00"> &#160;Exports</text>
<g id="clust1" class="cluster">
<title>cluster_JobModule</title>
<polygon fill="none" stroke="black" stroke-dasharray="1,5" points="138.5,-70 138.5,-268 357.5,-268 357.5,-70 138.5,-70"/>
</g>
<g id="clust6" class="cluster">
<title>cluster_JobModule_providers</title>
<polygon fill="none" stroke="black" points="186.5,-78 186.5,-130 308.5,-130 308.5,-78 186.5,-78"/>
</g>
<g id="clust4" class="cluster">
<title>cluster_JobModule_exports</title>
<polygon fill="none" stroke="black" points="146.5,-208 146.5,-260 349.5,-260 349.5,-208 146.5,-208"/>
</g>
<!-- JobResolver  -->
<g id="node1" class="node">
<title>JobResolver </title>
<polygon fill="#fb8072" stroke="black" points="341.71,-252 253.29,-252 253.29,-216 341.71,-216 341.71,-252"/>
<text text-anchor="middle" x="297.5" y="-229.8" font-family="Times,serif" font-size="14.00">JobResolver </text>
</g>
<!-- JobService  -->
<g id="node2" class="node">
<title>JobService </title>
<polygon fill="#fb8072" stroke="black" points="234.92,-252 154.08,-252 154.08,-216 234.92,-216 234.92,-252"/>
<text text-anchor="middle" x="194.5" y="-229.8" font-family="Times,serif" font-size="14.00">JobService </text>
</g>
<!-- JobModule -->
<g id="node3" class="node">
<title>JobModule</title>
<polygon fill="#8dd3c7" stroke="black" points="286.99,-187 283.99,-191 262.99,-191 259.99,-187 208.01,-187 208.01,-151 286.99,-151 286.99,-187"/>
<text text-anchor="middle" x="247.5" y="-164.8" font-family="Times,serif" font-size="14.00">JobModule</text>
</g>
<!-- JobModule&#45;&gt;JobResolver  -->
<g id="edge1" class="edge">
<title>JobModule&#45;&gt;JobResolver </title>
<path fill="none" stroke="black" stroke-dasharray="5,2" d="M270.07,-187.11C270.07,-187.11 270.07,-205.99 270.07,-205.99"/>
<polygon fill="black" stroke="black" points="266.57,-205.99 270.07,-215.99 273.57,-205.99 266.57,-205.99"/>
</g>
<!-- JobModule&#45;&gt;JobService  -->
<g id="edge2" class="edge">
<title>JobModule&#45;&gt;JobService </title>
<path fill="none" stroke="black" stroke-dasharray="5,2" d="M221.48,-187.11C221.48,-187.11 221.48,-205.99 221.48,-205.99"/>
<polygon fill="black" stroke="black" points="217.98,-205.99 221.48,-215.99 224.98,-205.99 217.98,-205.99"/>
</g>
<!-- JobService -->
<g id="node4" class="node">
<title>JobService</title>
<ellipse fill="#fdb462" stroke="black" cx="247.5" cy="-104" rx="53.31" ry="18"/>
<text text-anchor="middle" x="247.5" y="-99.8" font-family="Times,serif" font-size="14.00">JobService</text>
</g>
<!-- JobService&#45;&gt;JobModule -->
<g id="edge3" class="edge">
<title>JobService&#45;&gt;JobModule</title>
<path fill="none" stroke="black" d="M247.5,-122.11C247.5,-122.11 247.5,-140.99 247.5,-140.99"/>
<polygon fill="black" stroke="black" points="244,-140.99 247.5,-150.99 251,-140.99 244,-140.99"/>
</g>
</g>
</svg>
