<?xml version="1.0" encoding="UTF-8" standalone="no"?>
<!DOCTYPE svg PUBLIC "-//W3C//DTD SVG 1.1//EN"
 "http://www.w3.org/Graphics/SVG/1.1/DTD/svg11.dtd">
<!-- Generated by graphviz version 2.47.0 (20210316.0004)
 -->
<!-- Title: dependencies Pages: 1 -->
<svg width="504pt" height="284pt"
 viewBox="0.00 0.00 504.00 284.00" xmlns="http://www.w3.org/2000/svg" xmlns:xlink="http://www.w3.org/1999/xlink">
<g id="graph0" class="graph" transform="scale(1 1) rotate(0) translate(4 280)">
<title>dependencies</title>
<polygon fill="white" stroke="transparent" points="-4,4 -4,-280 500,-280 500,4 -4,4"/>
<text text-anchor="start" x="227.01" y="-42.4" font-family="Times-12" font-weight="bold" font-size="14.00">Legend</text>
<polygon fill="#ffffb3" stroke="transparent" points="14,-10 14,-30 34,-30 34,-10 14,-10"/>
<text text-anchor="start" x="37.63" y="-15.4" font-family="Times-12" font-size="14.00"> &#160;Declarations</text>
<polygon fill="#8dd3c7" stroke="transparent" points="127,-10 127,-30 147,-30 147,-10 127,-10"/>
<text text-anchor="start" x="150.73" y="-15.4" font-family="Times-12" font-size="14.00"> &#160;Module</text>
<polygon fill="#80b1d3" stroke="transparent" points="213,-10 213,-30 233,-30 233,-10 213,-10"/>
<text text-anchor="start" x="236.78" y="-15.4" font-family="Times-12" font-size="14.00"> &#160;Bootstrap</text>
<polygon fill="#fdb462" stroke="transparent" points="310,-10 310,-30 330,-30 330,-10 310,-10"/>
<text text-anchor="start" x="333.67" y="-15.4" font-family="Times-12" font-size="14.00"> &#160;Providers</text>
<polygon fill="#fb8072" stroke="transparent" points="406,-10 406,-30 426,-30 426,-10 406,-10"/>
<text text-anchor="start" x="429.73" y="-15.4" font-family="Times-12" font-size="14.00"> &#160;Exports</text>
<g id="clust1" class="cluster">
<title>cluster_EntityModule</title>
<polygon fill="none" stroke="black" stroke-dasharray="1,5" points="191,-70 191,-268 305,-268 305,-70 191,-70"/>
</g>
<g id="clust3" class="cluster">
<title>cluster_EntityModule_imports</title>
<polygon fill="none" stroke="black" points="201,-78 201,-130 295,-130 295,-78 201,-78"/>
</g>
<g id="clust4" class="cluster">
<title>cluster_EntityModule_exports</title>
<polygon fill="none" stroke="black" points="199,-208 199,-260 297,-260 297,-208 199,-208"/>
</g>
<!-- JobModule -->
<g id="node1" class="node">
<title>JobModule</title>
<polygon fill="#8dd3c7" stroke="black" points="287.49,-122 284.49,-126 263.49,-126 260.49,-122 208.51,-122 208.51,-86 287.49,-86 287.49,-122"/>
<text text-anchor="middle" x="248" y="-99.8" font-family="Times,serif" font-size="14.00">JobModule</text>
</g>
<!-- EntityModule -->
<g id="node2" class="node">
<title>EntityModule</title>
<polygon fill="#8dd3c7" stroke="black" points="294.77,-187 291.77,-191 270.77,-191 267.77,-187 201.23,-187 201.23,-151 294.77,-151 294.77,-187"/>
<text text-anchor="middle" x="248" y="-164.8" font-family="Times,serif" font-size="14.00">EntityModule</text>
</g>
<!-- JobModule&#45;&gt;EntityModule -->
<g id="edge1" class="edge">
<title>JobModule&#45;&gt;EntityModule</title>
<path fill="none" stroke="black" d="M248,-122.11C248,-122.11 248,-140.99 248,-140.99"/>
<polygon fill="black" stroke="black" points="244.5,-140.99 248,-150.99 251.5,-140.99 244.5,-140.99"/>
</g>
<!-- JobModule  -->
<g id="node3" class="node">
<title>JobModule </title>
<polygon fill="#fb8072" stroke="black" points="289.5,-252 206.5,-252 206.5,-216 289.5,-216 289.5,-252"/>
<text text-anchor="middle" x="248" y="-229.8" font-family="Times,serif" font-size="14.00">JobModule </text>
</g>
<!-- EntityModule&#45;&gt;JobModule  -->
<g id="edge2" class="edge">
<title>EntityModule&#45;&gt;JobModule </title>
<path fill="none" stroke="black" stroke-dasharray="5,2" d="M248,-187.11C248,-187.11 248,-205.99 248,-205.99"/>
<polygon fill="black" stroke="black" points="244.5,-205.99 248,-215.99 251.5,-205.99 244.5,-205.99"/>
</g>
</g>
</svg>
