<?xml version="1.0" encoding="UTF-8" standalone="no"?>
<!DOCTYPE svg PUBLIC "-//W3C//DTD SVG 1.1//EN"
 "http://www.w3.org/Graphics/SVG/1.1/DTD/svg11.dtd">
<!-- Generated by graphviz version 5.0.0 (20220707.1540)
 -->
<!-- Title: dependencies Pages: 1 -->
<svg width="1087pt" height="247pt"
 viewBox="0.00 0.00 1087.00 246.80" xmlns="http://www.w3.org/2000/svg" xmlns:xlink="http://www.w3.org/1999/xlink">
<g id="graph0" class="graph" transform="scale(1 1) rotate(0) translate(4 242.8)">
<title>dependencies</title>
<polygon fill="white" stroke="transparent" points="-4,4 -4,-242.8 1083,-242.8 1083,4 -4,4"/>
<text text-anchor="middle" x="539.5" y="-8.2" font-family="sans-serif" font-size="14.00">dependencies</text>
<g id="clust1" class="cluster">
<title>cluster_ServicesModule</title>
<polygon fill="none" stroke="black" stroke-dasharray="1,5" points="8,-32.8 8,-230.8 1071,-230.8 1071,-32.8 8,-32.8"/>
</g>
<g id="clust3" class="cluster">
<title>cluster_ServicesModule_imports</title>
<polygon fill="none" stroke="black" points="823,-40.8 823,-92.8 1063,-92.8 1063,-40.8 823,-40.8"/>
</g>
<g id="clust4" class="cluster">
<title>cluster_ServicesModule_exports</title>
<polygon fill="none" stroke="black" points="270,-170.8 270,-222.8 890,-222.8 890,-170.8 270,-170.8"/>
</g>
<g id="clust6" class="cluster">
<title>cluster_ServicesModule_providers</title>
<polygon fill="none" stroke="black" points="16,-40.8 16,-92.8 815,-92.8 815,-40.8 16,-40.8"/>
</g>
<!-- ModelsModule -->
<g id="node1" class="node">
<title>ModelsModule</title>
<polygon fill="#8dd3c7" stroke="black" points="1054.55,-84.8 1051.55,-88.8 1030.55,-88.8 1027.55,-84.8 953.45,-84.8 953.45,-48.8 1054.55,-48.8 1054.55,-84.8"/>
<text text-anchor="middle" x="1004" y="-62.6" font-family="Times,serif" font-size="14.00">ModelsModule</text>
</g>
<!-- ServicesModule -->
<g id="node3" class="node">
<title>ServicesModule</title>
<polygon fill="#8dd3c7" stroke="black" points="636.48,-149.8 633.48,-153.8 612.48,-153.8 609.48,-149.8 529.52,-149.8 529.52,-113.8 636.48,-113.8 636.48,-149.8"/>
<text text-anchor="middle" x="583" y="-127.6" font-family="Times,serif" font-size="14.00">ServicesModule</text>
</g>
<!-- ModelsModule&#45;&gt;ServicesModule -->
<g id="edge1" class="edge">
<title>ModelsModule&#45;&gt;ServicesModule</title>
<path fill="none" stroke="black" d="M1004,-84.91C1004,-104.14 1004,-131.8 1004,-131.8 1004,-131.8 646.75,-131.8 646.75,-131.8"/>
<polygon fill="black" stroke="black" points="646.75,-128.3 636.75,-131.8 646.75,-135.3 646.75,-128.3"/>
</g>
<!-- UtilitiesModule -->
<g id="node2" class="node">
<title>UtilitiesModule</title>
<polygon fill="#8dd3c7" stroke="black" points="935.16,-84.8 932.16,-88.8 911.16,-88.8 908.16,-84.8 830.84,-84.8 830.84,-48.8 935.16,-48.8 935.16,-84.8"/>
<text text-anchor="middle" x="883" y="-62.6" font-family="Times,serif" font-size="14.00">UtilitiesModule</text>
</g>
<!-- UtilitiesModule&#45;&gt;ServicesModule -->
<g id="edge2" class="edge">
<title>UtilitiesModule&#45;&gt;ServicesModule</title>
<path fill="none" stroke="black" d="M856.29,-84.82C856.29,-102.17 856.29,-125.8 856.29,-125.8 856.29,-125.8 646.67,-125.8 646.67,-125.8"/>
<polygon fill="black" stroke="black" points="646.67,-122.3 636.67,-125.8 646.67,-129.3 646.67,-122.3"/>
</g>
<!-- AiStoryService  -->
<g id="node4" class="node">
<title>AiStoryService </title>
<polygon fill="#fb8072" stroke="black" points="881.82,-214.8 776.18,-214.8 776.18,-178.8 881.82,-178.8 881.82,-214.8"/>
<text text-anchor="middle" x="829" y="-192.6" font-family="Times,serif" font-size="14.00">AiStoryService </text>
</g>
<!-- ServicesModule&#45;&gt;AiStoryService  -->
<g id="edge3" class="edge">
<title>ServicesModule&#45;&gt;AiStoryService </title>
<path fill="none" stroke="black" stroke-dasharray="5,2" d="M636.65,-137.8C698.38,-137.8 791.33,-137.8 791.33,-137.8 791.33,-137.8 791.33,-168.78 791.33,-168.78"/>
<polygon fill="black" stroke="black" points="787.83,-168.78 791.33,-178.78 794.83,-168.78 787.83,-168.78"/>
</g>
<!-- AmqpService  -->
<g id="node5" class="node">
<title>AmqpService </title>
<polygon fill="#fb8072" stroke="black" points="758.48,-214.8 661.52,-214.8 661.52,-178.8 758.48,-178.8 758.48,-214.8"/>
<text text-anchor="middle" x="710" y="-192.6" font-family="Times,serif" font-size="14.00">AmqpService </text>
</g>
<!-- ServicesModule&#45;&gt;AmqpService  -->
<g id="edge4" class="edge">
<title>ServicesModule&#45;&gt;AmqpService </title>
<path fill="none" stroke="black" stroke-dasharray="5,2" d="M636.73,-143.8C677.76,-143.8 727.3,-143.8 727.3,-143.8 727.3,-143.8 727.3,-168.56 727.3,-168.56"/>
<polygon fill="black" stroke="black" points="723.8,-168.56 727.3,-178.56 730.8,-168.56 723.8,-168.56"/>
</g>
<!-- CogView2Service  -->
<g id="node6" class="node">
<title>CogView2Service </title>
<polygon fill="#fb8072" stroke="black" points="644.14,-214.8 521.86,-214.8 521.86,-178.8 644.14,-178.8 644.14,-214.8"/>
<text text-anchor="middle" x="583" y="-192.6" font-family="Times,serif" font-size="14.00">CogView2Service </text>
</g>
<!-- ServicesModule&#45;&gt;CogView2Service  -->
<g id="edge5" class="edge">
<title>ServicesModule&#45;&gt;CogView2Service </title>
<path fill="none" stroke="black" stroke-dasharray="5,2" d="M583,-149.91C583,-149.91 583,-168.79 583,-168.79"/>
<polygon fill="black" stroke="black" points="579.5,-168.79 583,-178.79 586.5,-168.79 579.5,-168.79"/>
</g>
<!-- DalleMiniService  -->
<g id="node7" class="node">
<title>DalleMiniService </title>
<polygon fill="#fb8072" stroke="black" points="503.52,-214.8 384.48,-214.8 384.48,-178.8 503.52,-178.8 503.52,-214.8"/>
<text text-anchor="middle" x="444" y="-192.6" font-family="Times,serif" font-size="14.00">DalleMiniService </text>
</g>
<!-- ServicesModule&#45;&gt;DalleMiniService  -->
<g id="edge6" class="edge">
<title>ServicesModule&#45;&gt;DalleMiniService </title>
<path fill="none" stroke="black" stroke-dasharray="5,2" d="M529.25,-143.8C496.95,-143.8 462.05,-143.8 462.05,-143.8 462.05,-143.8 462.05,-168.56 462.05,-168.56"/>
<polygon fill="black" stroke="black" points="458.55,-168.56 462.05,-178.56 465.55,-168.56 458.55,-168.56"/>
</g>
<!-- HelpService  -->
<g id="node8" class="node">
<title>HelpService </title>
<polygon fill="#fb8072" stroke="black" points="366.19,-214.8 277.81,-214.8 277.81,-178.8 366.19,-178.8 366.19,-214.8"/>
<text text-anchor="middle" x="322" y="-192.6" font-family="Times,serif" font-size="14.00">HelpService </text>
</g>
<!-- ServicesModule&#45;&gt;HelpService  -->
<g id="edge7" class="edge">
<title>ServicesModule&#45;&gt;HelpService </title>
<path fill="none" stroke="black" stroke-dasharray="5,2" d="M529.37,-137.8C461.05,-137.8 351.75,-137.8 351.75,-137.8 351.75,-137.8 351.75,-168.78 351.75,-168.78"/>
<polygon fill="black" stroke="black" points="348.26,-168.78 351.75,-178.78 355.26,-168.78 348.26,-168.78"/>
</g>
<!-- AiStoryService -->
<g id="node9" class="node">
<title>AiStoryService</title>
<ellipse fill="#fdb462" stroke="black" cx="736" cy="-66.8" rx="70.65" ry="18"/>
<text text-anchor="middle" x="736" y="-62.6" font-family="Times,serif" font-size="14.00">AiStoryService</text>
</g>
<!-- AiStoryService&#45;&gt;ServicesModule -->
<g id="edge8" class="edge">
<title>AiStoryService&#45;&gt;ServicesModule</title>
<path fill="none" stroke="black" d="M696.36,-81.85C696.36,-97.52 696.36,-119.8 696.36,-119.8 696.36,-119.8 646.69,-119.8 646.69,-119.8"/>
<polygon fill="black" stroke="black" points="646.69,-116.3 636.69,-119.8 646.69,-123.3 646.69,-116.3"/>
</g>
<!-- AmqpService -->
<g id="node10" class="node">
<title>AmqpService</title>
<ellipse fill="#fdb462" stroke="black" cx="583" cy="-66.8" rx="64.27" ry="18"/>
<text text-anchor="middle" x="583" y="-62.6" font-family="Times,serif" font-size="14.00">AmqpService</text>
</g>
<!-- AmqpService&#45;&gt;ServicesModule -->
<g id="edge9" class="edge">
<title>AmqpService&#45;&gt;ServicesModule</title>
<path fill="none" stroke="black" d="M583,-84.91C583,-84.91 583,-103.79 583,-103.79"/>
<polygon fill="black" stroke="black" points="579.5,-103.79 583,-113.79 586.5,-103.79 579.5,-103.79"/>
</g>
<!-- CogView2Service -->
<g id="node11" class="node">
<title>CogView2Service</title>
<ellipse fill="#fdb462" stroke="black" cx="419" cy="-66.8" rx="81.67" ry="18"/>
<text text-anchor="middle" x="419" y="-62.6" font-family="Times,serif" font-size="14.00">CogView2Service</text>
</g>
<!-- CogView2Service&#45;&gt;ServicesModule -->
<g id="edge10" class="edge">
<title>CogView2Service&#45;&gt;ServicesModule</title>
<path fill="none" stroke="black" d="M423.27,-85.04C423.27,-100.37 423.27,-119.8 423.27,-119.8 423.27,-119.8 519.37,-119.8 519.37,-119.8"/>
<polygon fill="black" stroke="black" points="519.37,-123.3 529.37,-119.8 519.37,-116.3 519.37,-123.3"/>
</g>
<!-- DalleMiniService -->
<g id="node12" class="node">
<title>DalleMiniService</title>
<ellipse fill="#fdb462" stroke="black" cx="239" cy="-66.8" rx="79.87" ry="18"/>
<text text-anchor="middle" x="239" y="-62.6" font-family="Times,serif" font-size="14.00">DalleMiniService</text>
</g>
<!-- DalleMiniService&#45;&gt;ServicesModule -->
<g id="edge11" class="edge">
<title>DalleMiniService&#45;&gt;ServicesModule</title>
<path fill="none" stroke="black" d="M298.17,-79.02C298.17,-96.31 298.17,-125.8 298.17,-125.8 298.17,-125.8 519.43,-125.8 519.43,-125.8"/>
<polygon fill="black" stroke="black" points="519.43,-129.3 529.43,-125.8 519.43,-122.3 519.43,-129.3"/>
</g>
<!-- HelpService -->
<g id="node13" class="node">
<title>HelpService</title>
<ellipse fill="#fdb462" stroke="black" cx="83" cy="-66.8" rx="58.53" ry="18"/>
<text text-anchor="middle" x="83" y="-62.6" font-family="Times,serif" font-size="14.00">HelpService</text>
</g>
<!-- HelpService&#45;&gt;ServicesModule -->
<g id="edge12" class="edge">
<title>HelpService&#45;&gt;ServicesModule</title>
<path fill="none" stroke="black" d="M83,-84.91C83,-104.14 83,-131.8 83,-131.8 83,-131.8 519.49,-131.8 519.49,-131.8"/>
<polygon fill="black" stroke="black" points="519.49,-135.3 529.49,-131.8 519.49,-128.3 519.49,-135.3"/>
</g>
</g>
</svg>
