<?xml version="1.0" encoding="UTF-8" standalone="no"?>
<!DOCTYPE svg PUBLIC "-//W3C//DTD SVG 1.1//EN"
 "http://www.w3.org/Graphics/SVG/1.1/DTD/svg11.dtd">
<!-- Generated by graphviz version 5.0.0 (20220707.1540)
 -->
<!-- Title: dependencies Pages: 1 -->
<svg width="500pt" height="247pt"
 viewBox="0.00 0.00 500.00 246.80" xmlns="http://www.w3.org/2000/svg" xmlns:xlink="http://www.w3.org/1999/xlink">
<g id="graph0" class="graph" transform="scale(1 1) rotate(0) translate(4 242.8)">
<title>dependencies</title>
<polygon fill="white" stroke="transparent" points="-4,4 -4,-242.8 496,-242.8 496,4 -4,4"/>
<text text-anchor="middle" x="246" y="-8.2" font-family="sans-serif" font-size="14.00">dependencies</text>
<g id="clust1" class="cluster">
<title>cluster_ModelsModule</title>
<polygon fill="none" stroke="black" stroke-dasharray="1,5" points="8,-32.8 8,-230.8 484,-230.8 484,-32.8 8,-32.8"/>
</g>
<g id="clust4" class="cluster">
<title>cluster_ModelsModule_exports</title>
<polygon fill="none" stroke="black" points="72,-170.8 72,-222.8 430,-222.8 430,-170.8 72,-170.8"/>
</g>
<g id="clust6" class="cluster">
<title>cluster_ModelsModule_providers</title>
<polygon fill="none" stroke="black" points="16,-40.8 16,-92.8 476,-92.8 476,-40.8 16,-40.8"/>
</g>
<!-- AiArtModel  -->
<g id="node1" class="node">
<title>AiArtModel </title>
<polygon fill="#fb8072" stroke="black" points="422.21,-214.8 333.79,-214.8 333.79,-178.8 422.21,-178.8 422.21,-214.8"/>
<text text-anchor="middle" x="378" y="-192.6" font-family="Times,serif" font-size="14.00">AiArtModel </text>
</g>
<!-- AiStoryModel  -->
<g id="node2" class="node">
<title>AiStoryModel </title>
<polygon fill="#fb8072" stroke="black" points="315.39,-214.8 214.61,-214.8 214.61,-178.8 315.39,-178.8 315.39,-214.8"/>
<text text-anchor="middle" x="265" y="-192.6" font-family="Times,serif" font-size="14.00">AiStoryModel </text>
</g>
<!-- CogView2Model  -->
<g id="node3" class="node">
<title>CogView2Model </title>
<polygon fill="#fb8072" stroke="black" points="196.21,-214.8 79.79,-214.8 79.79,-178.8 196.21,-178.8 196.21,-214.8"/>
<text text-anchor="middle" x="138" y="-192.6" font-family="Times,serif" font-size="14.00">CogView2Model </text>
</g>
<!-- ModelsModule -->
<g id="node4" class="node">
<title>ModelsModule</title>
<polygon fill="#8dd3c7" stroke="black" points="315.55,-149.8 312.55,-153.8 291.55,-153.8 288.55,-149.8 214.45,-149.8 214.45,-113.8 315.55,-113.8 315.55,-149.8"/>
<text text-anchor="middle" x="265" y="-127.6" font-family="Times,serif" font-size="14.00">ModelsModule</text>
</g>
<!-- ModelsModule&#45;&gt;AiArtModel  -->
<g id="edge1" class="edge">
<title>ModelsModule&#45;&gt;AiArtModel </title>
<path fill="none" stroke="black" stroke-dasharray="5,2" d="M315.89,-137.8C330.19,-137.8 341.93,-137.8 341.93,-137.8 341.93,-137.8 341.93,-168.78 341.93,-168.78"/>
<polygon fill="black" stroke="black" points="338.43,-168.78 341.93,-178.78 345.43,-168.78 338.43,-168.78"/>
</g>
<!-- ModelsModule&#45;&gt;AiStoryModel  -->
<g id="edge2" class="edge">
<title>ModelsModule&#45;&gt;AiStoryModel </title>
<path fill="none" stroke="black" stroke-dasharray="5,2" d="M265,-149.91C265,-149.91 265,-168.79 265,-168.79"/>
<polygon fill="black" stroke="black" points="261.5,-168.79 265,-178.79 268.5,-168.79 261.5,-168.79"/>
</g>
<!-- ModelsModule&#45;&gt;CogView2Model  -->
<g id="edge3" class="edge">
<title>ModelsModule&#45;&gt;CogView2Model </title>
<path fill="none" stroke="black" stroke-dasharray="5,2" d="M214.22,-137.8C199.94,-137.8 188.22,-137.8 188.22,-137.8 188.22,-137.8 188.22,-168.78 188.22,-168.78"/>
<polygon fill="black" stroke="black" points="184.72,-168.78 188.22,-178.78 191.72,-168.78 184.72,-168.78"/>
</g>
<!-- AiArtModel -->
<g id="node5" class="node">
<title>AiArtModel</title>
<ellipse fill="#fdb462" stroke="black" cx="409" cy="-66.8" rx="58.56" ry="18"/>
<text text-anchor="middle" x="409" y="-62.6" font-family="Times,serif" font-size="14.00">AiArtModel</text>
</g>
<!-- AiArtModel&#45;&gt;ModelsModule -->
<g id="edge4" class="edge">
<title>AiArtModel&#45;&gt;ModelsModule</title>
<path fill="none" stroke="black" d="M386.29,-83.55C386.29,-100.99 386.29,-125.8 386.29,-125.8 386.29,-125.8 325.73,-125.8 325.73,-125.8"/>
<polygon fill="black" stroke="black" points="325.73,-122.3 315.73,-125.8 325.73,-129.3 325.73,-122.3"/>
</g>
<!-- AiStoryModel -->
<g id="node6" class="node">
<title>AiStoryModel</title>
<ellipse fill="#fdb462" stroke="black" cx="265" cy="-66.8" rx="66.67" ry="18"/>
<text text-anchor="middle" x="265" y="-62.6" font-family="Times,serif" font-size="14.00">AiStoryModel</text>
</g>
<!-- AiStoryModel&#45;&gt;ModelsModule -->
<g id="edge5" class="edge">
<title>AiStoryModel&#45;&gt;ModelsModule</title>
<path fill="none" stroke="black" d="M265,-84.91C265,-84.91 265,-103.79 265,-103.79"/>
<polygon fill="black" stroke="black" points="261.5,-103.79 265,-113.79 268.5,-103.79 261.5,-103.79"/>
</g>
<!-- CogView2Model -->
<g id="node7" class="node">
<title>CogView2Model</title>
<ellipse fill="#fdb462" stroke="black" cx="102" cy="-66.8" rx="78.19" ry="18"/>
<text text-anchor="middle" x="102" y="-62.6" font-family="Times,serif" font-size="14.00">CogView2Model</text>
</g>
<!-- CogView2Model&#45;&gt;ModelsModule -->
<g id="edge6" class="edge">
<title>CogView2Model&#45;&gt;ModelsModule</title>
<path fill="none" stroke="black" d="M129.87,-83.87C129.87,-101.29 129.87,-125.8 129.87,-125.8 129.87,-125.8 204.3,-125.8 204.3,-125.8"/>
<polygon fill="black" stroke="black" points="204.3,-129.3 214.3,-125.8 204.3,-122.3 204.3,-129.3"/>
</g>
</g>
</svg>
