<?xml version="1.0" encoding="UTF-8" standalone="no"?>
<!DOCTYPE svg PUBLIC "-//W3C//DTD SVG 1.1//EN"
 "http://www.w3.org/Graphics/SVG/1.1/DTD/svg11.dtd">
<!-- Generated by graphviz version 2.47.0 (20210316.0004)
 -->
<!-- Title: dependencies Pages: 1 -->
<svg width="959pt" height="284pt"
 viewBox="0.00 0.00 959.00 284.00" xmlns="http://www.w3.org/2000/svg" xmlns:xlink="http://www.w3.org/1999/xlink">
<g id="graph0" class="graph" transform="scale(1 1) rotate(0) translate(4 280)">
<title>dependencies</title>
<polygon fill="white" stroke="transparent" points="-4,4 -4,-280 955,-280 955,4 -4,4"/>
<text text-anchor="start" x="454.51" y="-42.4" font-family="Times-12" font-weight="bold" font-size="14.00">Legend</text>
<polygon fill="#ffffb3" stroke="transparent" points="241.5,-10 241.5,-30 261.5,-30 261.5,-10 241.5,-10"/>
<text text-anchor="start" x="265.13" y="-15.4" font-family="Times-12" font-size="14.00"> &#160;Declarations</text>
<polygon fill="#8dd3c7" stroke="transparent" points="354.5,-10 354.5,-30 374.5,-30 374.5,-10 354.5,-10"/>
<text text-anchor="start" x="378.23" y="-15.4" font-family="Times-12" font-size="14.00"> &#160;Module</text>
<polygon fill="#80b1d3" stroke="transparent" points="440.5,-10 440.5,-30 460.5,-30 460.5,-10 440.5,-10"/>
<text text-anchor="start" x="464.28" y="-15.4" font-family="Times-12" font-size="14.00"> &#160;Bootstrap</text>
<polygon fill="#fdb462" stroke="transparent" points="537.5,-10 537.5,-30 557.5,-30 557.5,-10 537.5,-10"/>
<text text-anchor="start" x="561.17" y="-15.4" font-family="Times-12" font-size="14.00"> &#160;Providers</text>
<polygon fill="#fb8072" stroke="transparent" points="633.5,-10 633.5,-30 653.5,-30 653.5,-10 633.5,-10"/>
<text text-anchor="start" x="657.23" y="-15.4" font-family="Times-12" font-size="14.00"> &#160;Exports</text>
<g id="clust1" class="cluster">
<title>cluster_ModelsModule</title>
<polygon fill="none" stroke="black" stroke-dasharray="1,5" points="8,-70 8,-268 943,-268 943,-70 8,-70"/>
</g>
<g id="clust4" class="cluster">
<title>cluster_ModelsModule_exports</title>
<polygon fill="none" stroke="black" points="243,-208 243,-260 759,-260 759,-208 243,-208"/>
</g>
<g id="clust3" class="cluster">
<title>cluster_ModelsModule_imports</title>
<polygon fill="none" stroke="black" points="819,-78 819,-130 935,-130 935,-78 819,-78"/>
</g>
<g id="clust6" class="cluster">
<title>cluster_ModelsModule_providers</title>
<polygon fill="none" stroke="black" points="16,-78 16,-130 811,-130 811,-78 16,-78"/>
</g>
<!-- LoggerModule -->
<g id="node1" class="node">
<title>LoggerModule</title>
<polygon fill="#8dd3c7" stroke="black" points="926.98,-122 923.98,-126 902.98,-126 899.98,-122 827.02,-122 827.02,-86 926.98,-86 926.98,-122"/>
<text text-anchor="middle" x="877" y="-99.8" font-family="Times,serif" font-size="14.00">LoggerModule</text>
</g>
<!-- ModelsModule -->
<g id="node2" class="node">
<title>ModelsModule</title>
<polygon fill="#8dd3c7" stroke="black" points="580.55,-187 577.55,-191 556.55,-191 553.55,-187 479.45,-187 479.45,-151 580.55,-151 580.55,-187"/>
<text text-anchor="middle" x="530" y="-164.8" font-family="Times,serif" font-size="14.00">ModelsModule</text>
</g>
<!-- LoggerModule&#45;&gt;ModelsModule -->
<g id="edge1" class="edge">
<title>LoggerModule&#45;&gt;ModelsModule</title>
<path fill="none" stroke="black" d="M877,-122.11C877,-141.34 877,-169 877,-169 877,-169 590.83,-169 590.83,-169"/>
<polygon fill="black" stroke="black" points="590.83,-165.5 580.83,-169 590.83,-172.5 590.83,-165.5"/>
</g>
<!-- AiArtModel  -->
<g id="node3" class="node">
<title>AiArtModel </title>
<polygon fill="#fb8072" stroke="black" points="751.21,-252 662.79,-252 662.79,-216 751.21,-216 751.21,-252"/>
<text text-anchor="middle" x="707" y="-229.8" font-family="Times,serif" font-size="14.00">AiArtModel </text>
</g>
<!-- ModelsModule&#45;&gt;AiArtModel  -->
<g id="edge2" class="edge">
<title>ModelsModule&#45;&gt;AiArtModel </title>
<path fill="none" stroke="black" stroke-dasharray="5,2" d="M580.66,-178C622.84,-178 676.03,-178 676.03,-178 676.03,-178 676.03,-205.97 676.03,-205.97"/>
<polygon fill="black" stroke="black" points="672.53,-205.97 676.03,-215.97 679.53,-205.97 672.53,-205.97"/>
</g>
<!-- AiStoryModel  -->
<g id="node4" class="node">
<title>AiStoryModel </title>
<polygon fill="#fb8072" stroke="black" points="644.38,-252 543.62,-252 543.62,-216 644.38,-216 644.38,-252"/>
<text text-anchor="middle" x="594" y="-229.8" font-family="Times,serif" font-size="14.00">AiStoryModel </text>
</g>
<!-- ModelsModule&#45;&gt;AiStoryModel  -->
<g id="edge3" class="edge">
<title>ModelsModule&#45;&gt;AiStoryModel </title>
<path fill="none" stroke="black" stroke-dasharray="5,2" d="M562.29,-187.11C562.29,-187.11 562.29,-205.99 562.29,-205.99"/>
<polygon fill="black" stroke="black" points="558.79,-205.99 562.29,-215.99 565.79,-205.99 558.79,-205.99"/>
</g>
<!-- CogView2Model  -->
<g id="node5" class="node">
<title>CogView2Model </title>
<polygon fill="#fb8072" stroke="black" points="525.21,-252 408.79,-252 408.79,-216 525.21,-216 525.21,-252"/>
<text text-anchor="middle" x="467" y="-229.8" font-family="Times,serif" font-size="14.00">CogView2Model </text>
</g>
<!-- ModelsModule&#45;&gt;CogView2Model  -->
<g id="edge4" class="edge">
<title>ModelsModule&#45;&gt;CogView2Model </title>
<path fill="none" stroke="black" stroke-dasharray="5,2" d="M502.29,-187.11C502.29,-187.11 502.29,-205.99 502.29,-205.99"/>
<polygon fill="black" stroke="black" points="498.79,-205.99 502.29,-215.99 505.79,-205.99 498.79,-205.99"/>
</g>
<!-- WomboDreamModel  -->
<g id="node6" class="node">
<title>WomboDreamModel </title>
<polygon fill="#fb8072" stroke="black" points="390.74,-252 251.26,-252 251.26,-216 390.74,-216 390.74,-252"/>
<text text-anchor="middle" x="321" y="-229.8" font-family="Times,serif" font-size="14.00">WomboDreamModel </text>
</g>
<!-- ModelsModule&#45;&gt;WomboDreamModel  -->
<g id="edge5" class="edge">
<title>ModelsModule&#45;&gt;WomboDreamModel </title>
<path fill="none" stroke="black" stroke-dasharray="5,2" d="M479.4,-178C423.47,-178 341.18,-178 341.18,-178 341.18,-178 341.18,-205.97 341.18,-205.97"/>
<polygon fill="black" stroke="black" points="337.68,-205.97 341.18,-215.97 344.68,-205.97 337.68,-205.97"/>
</g>
<!-- AiArtModel -->
<g id="node7" class="node">
<title>AiArtModel</title>
<ellipse fill="#fdb462" stroke="black" cx="744" cy="-104" rx="58.55" ry="18"/>
<text text-anchor="middle" x="744" y="-99.8" font-family="Times,serif" font-size="14.00">AiArtModel</text>
</g>
<!-- AiArtModel&#45;&gt;ModelsModule -->
<g id="edge6" class="edge">
<title>AiArtModel&#45;&gt;ModelsModule</title>
<path fill="none" stroke="black" d="M718.29,-120.2C718.29,-136.74 718.29,-160 718.29,-160 718.29,-160 590.95,-160 590.95,-160"/>
<polygon fill="black" stroke="black" points="590.95,-156.5 580.95,-160 590.95,-163.5 590.95,-156.5"/>
</g>
<!-- AiStoryModel -->
<g id="node8" class="node">
<title>AiStoryModel</title>
<ellipse fill="#fdb462" stroke="black" cx="600" cy="-104" rx="66.65" ry="18"/>
<text text-anchor="middle" x="600" y="-99.8" font-family="Times,serif" font-size="14.00">AiStoryModel</text>
</g>
<!-- AiStoryModel&#45;&gt;ModelsModule -->
<g id="edge7" class="edge">
<title>AiStoryModel&#45;&gt;ModelsModule</title>
<path fill="none" stroke="black" d="M556.97,-117.78C556.97,-117.78 556.97,-140.55 556.97,-140.55"/>
<polygon fill="black" stroke="black" points="553.47,-140.55 556.97,-150.55 560.47,-140.55 553.47,-140.55"/>
</g>
<!-- AuthModel -->
<g id="node9" class="node">
<title>AuthModel</title>
<ellipse fill="#fdb462" stroke="black" cx="460" cy="-104" rx="55.62" ry="18"/>
<text text-anchor="middle" x="460" y="-99.8" font-family="Times,serif" font-size="14.00">AuthModel</text>
</g>
<!-- AuthModel&#45;&gt;ModelsModule -->
<g id="edge8" class="edge">
<title>AuthModel&#45;&gt;ModelsModule</title>
<path fill="none" stroke="black" d="M497.39,-117.47C497.39,-117.47 497.39,-140.86 497.39,-140.86"/>
<polygon fill="black" stroke="black" points="493.89,-140.86 497.39,-150.86 500.89,-140.86 493.89,-140.86"/>
</g>
<!-- CogView2Model -->
<g id="node10" class="node">
<title>CogView2Model</title>
<ellipse fill="#fdb462" stroke="black" cx="308" cy="-104" rx="78.17" ry="18"/>
<text text-anchor="middle" x="308" y="-99.8" font-family="Times,serif" font-size="14.00">CogView2Model</text>
</g>
<!-- CogView2Model&#45;&gt;ModelsModule -->
<g id="edge9" class="edge">
<title>CogView2Model&#45;&gt;ModelsModule</title>
<path fill="none" stroke="black" d="M296.28,-122.03C296.28,-138.4 296.28,-160 296.28,-160 296.28,-160 469.29,-160 469.29,-160"/>
<polygon fill="black" stroke="black" points="469.29,-163.5 479.29,-160 469.29,-156.5 469.29,-163.5"/>
</g>
<!-- WomboDreamModel -->
<g id="node11" class="node">
<title>WomboDreamModel</title>
<ellipse fill="#fdb462" stroke="black" cx="118" cy="-104" rx="93.76" ry="18"/>
<text text-anchor="middle" x="118" y="-99.8" font-family="Times,serif" font-size="14.00">WomboDreamModel</text>
</g>
<!-- WomboDreamModel&#45;&gt;ModelsModule -->
<g id="edge10" class="edge">
<title>WomboDreamModel&#45;&gt;ModelsModule</title>
<path fill="none" stroke="black" d="M118,-122.11C118,-141.34 118,-169 118,-169 118,-169 469.07,-169 469.07,-169"/>
<polygon fill="black" stroke="black" points="469.07,-172.5 479.07,-169 469.07,-165.5 469.07,-172.5"/>
</g>
</g>
</svg>
